<svg xmlns="http://www.w3.org/2000/svg" viewBox="0 0 424.74 584"><title>Asset 1</title><g id="Layer_2" data-name="Layer 2"><g id="Layer_1-2" data-name="Layer 1"><path d="M192.84,396c-1.59,3.08-3.19,6.15-5.16,9.94-1.62-.23-4.34-.19-6.68-1.11a5.39,5.39,0,0,1-2.65-4c-.11-4.17.42-8.36.66-12.55a10.19,10.19,0,0,0-.52-2.14l-14.81,12.05,4.49-6.72-65.8-122.65c-3,5.2-3,5.19-.7,9.48,3.24,6.07,6.44,12.15,9.65,18.23l-1,.56-11-20.11-1.75.5c.34,2.33.2,4.88,1.13,6.95,2.17,4.84,4.86,9.45,7.35,14.15-2-2.89-4.15-5.74-6.11-8.69-1.18-1.78-2.14-3.7-3.2-5.57l-1.68.49c.82,3.21,1.65,6.41,2.56,9.95L95,291.16l-1.27.21c.3,3,.59,5.94.9,9.09L92.94,300c-.19.26-.55.51-.54.75.11,5.23.35,10.46.35,15.69,0,1.24-1.34,2.57-1.15,3.71.64,3.86,1,8,2.7,11.41,8.63,16.67,17.67,33.14,26.57,49.67l-1.39.79q-13-24.33-26-48.65l-1.42.37c1.72,6.57,3.43,13.15,5.11,19.59L91.49,352c2,4,3.81,7.73,5.67,11.48l-1.59.73-7.08-17.3q-2.1-8.73-4.19-17.45c.71-1.22,2.25-2.68,2-3.62-1.64-5.74-3.69-11.37-5.61-17l-2.44.62a65.37,65.37,0,0,0,1.35,8.21,76.92,76.92,0,0,0,3.4,8.22l-5-6.52c.3,3.23.16,5.1.7,6.75,1.36,4.18,3,8.27,4.57,12.39l-3.15-2.23v11.25c-5.55-3.55-5.73-10.29-7.48-16.28.58-.18,1.58-.24,1.68-.58,2.19-6.95-2.37-11.65-5.45-17.21-3,5.58-.47,9.82,2,14.08l-3.49-2.74c-.35,1-.76,2.34-1.56,4.81-4-7.14-7.77-13.26-10.84-19.73-3.54-7.44-6.57-15.14-9.47-22.86-.8-2.12-.36-4.71-.49-7.09,5.17-2.09,5.31-3.6-.53-8.6l-.26,7.18c-.87-1.66-2.13-3.24-2.54-5a154.69,154.69,0,0,1-2.88-15.67c-.25-2,.79-4.16,1.18-6.25.31-1.62.54-3.25.8-4.88l2.23.44c.29-1.5,1.24-3.28.75-4.45-1.42-3.35-3.54-6.39-5.15-9.66a42.61,42.61,0,0,1-1.9-5.72l1.16-.49,8.83,15.92c1-3.65,1.64-5.8,2.25-7.95l.31.41,3.54-5.79c1.33,2.55,2.62,4.71,3.6,7s1.72,4.92,2.56,7.39l1.79-.34c-.4-2.29-.47-4.7-1.26-6.84-1.25-3.36-3-6.54-4.51-9.79q2.52,3.66,5,7.31l1-.25-1-8.88c5.39,2.55,5.64,7.85,6.79,12.69q-.28,4.91-.59,9.78c-4,0-2.72,2.61-2.18,4.65A46.18,46.18,0,0,0,66,256.92l-3.25-3.46c-3.73,14-3.7,14.48,2,20.68.38-6.26.73-11.8,1.07-17.34l2.8.91c.23-1.08.47-2.16.7-3.24l3.91,5.82c-3.22,0-3.48,1.73-2.37,4.21s2.28,5.07,3.42,7.6l-5-6.08v7.07c-5.12,2.15-3.72,7.1,1.22,12.34,3.39-4.1.75-7.58-1.15-11.13l4.38,4c.16-2.62.27-4.48.38-6.34,4-2.27,1.3-5.33.94-8.11,1-.25,2.64-.35,2.73-.78a28.91,28.91,0,0,0,.23-5.28c.73-1.47,2.21-3,2-4.38-.31-2.15-1.72-4.15-2.67-6.21l3.58,3.22,1.57-.65-2.76-9.62-2,.28v6.68c-3.43.63-3.62,1.09-2.57,6.06l-3.59-.92a73.57,73.57,0,0,0-1.69-7.64,74.76,74.76,0,0,0-3.12-7.13l4.62,6c.59-4.3,2.39-8.5,1.35-11.79a40.57,40.57,0,0,0-8.13-13.74c-1.14-1.31-5.41.1-8.24.27L52.1,211c.58-.25,1.69-.58,1.67-.75-.4-3-1-5.92-1.46-8.88l9.34,6.81-9.38-16.72c-4.32,2.47-1.1,4.71-.61,6.89l-4.31-3.71-1.21,5.46L42.82,200l.45,5.44-6-3.46V191.79c3.37,1.5,7,4.27,9.6-.87,4.53-1.27,4.56-2.31-1.08-7.53l1.26,7.7q-4.15-6.87-8.29-13.74a3,3,0,0,1-.52-1.38c0-.25.69-.5.72-.79.2-2.31.7-4.69.39-7-.41-2.92-2.17-5.75-2.18-8.62q-.21-73.83,0-147.68C37.2,8,38.44,4,39.1,0h32c-.2,1.35-.34,2.71-.61,4Q68.29,15,66,25.92l1.34.67L106.1,0h13c-1.22,1.76-2.06,4.07-3.71,5.21C100.15,15.66,84.72,25.82,69.51,36.32a8.43,8.43,0,0,0-3.2,5.86c-.26,10.82.08,21.65,0,32.48,0,4.31,1.94,4.69,5.56,3.55.13-3,.27-5.91.4-8.85l1.3-.54c1.44,3.2,2.89,6.4,4.53,10.05,11.91.46,24.37.85,36.81,1.55,1.7.1,3.32,1.75,6.23,3.38,3.56-3.67,9.86-3,16.13-3,1.45,0,3.17-1.69,4.28-3a78.5,78.5,0,0,0,4.74-6.89l1.19.77-4.35,8.61c2.6,2.15,5.54-2.16,7.76.89,1.78-2.27,3.69-4.43,5.29-6.81,1.8-2.69,3.3-5.56,6-7.78q-3.9,7-7.81,14l1.28,1.16,6.07-6.21c-.73,2.33-1.28,4.1-1.68,5.35,2.06.37,3.88,1.13,5.56.87a5.81,5.81,0,0,0,3.52-2.6c3.36-5.59,6.47-11.32,10.63-16.47-3.12,6.14-6.25,12.27-9.39,18.44,3.13.63,3.12.63,6.93-6.07a35.61,35.61,0,0,1,6.11-8.58l-7.7,15,1.35,1q3.3-4.45,6.59-8.92l.48.11L180.72,82l1.79,1q6.81-11.81,13.63-23.61l1.23.72-11.82,22,1.06,1.13c1.29-.83,3.17-1.36,3.77-2.54,3-6,5.61-12.29,8.62-18.33.69-1.39,2.41-3.15,3.74-3.21,6.8-.33,13.63-.15,21-.15-1.69,6.56-3.51,12.67-4.8,18.89-1.72,8.29-3.09,16.66-4.48,25a5,5,0,0,0,.67,3.69c5.71,6.4,11.59,12.65,17.89,19.45,3.26-21.85,6.38-42.82,9.64-64.67,41.87,8.18,76.21,27.79,103.05,60s39.57,69.53,40,112.06c-.68-3.93-1.2-7.09-1.77-10.25s-1.19-6.4-1.79-9.6l-1.36.06c-.19,3.41-.86,6.87-.47,10.21,1,8.08,2.5,16.09,3.64,24.15,1.2,8.48.87,11.2-6.78,15-3.89,1.92-6.64,6.09-10,9.08-2.05,1.81-4.77,3-6.5,5-15.69,18.53-20,40.06-16.24,63.57.95,5.93-.09,7.34-6.21,7.32-8,0-16-.14-23.95.08-1.79,0-3.55,1.3-5.32,2l.43,1.42H338.8l.2.72a30.58,30.58,0,0,1-4.57.79c-8,.12-16,0-24,.28-1.7.06-3.37,1.38-5.05,2.13.17.52.34,1,.52,1.57h27v1c-8.6,0-17.21-.11-25.81.09-1.62,0-3.22,1.25-4.83,1.92.08.42.17.85.26,1.27l3.28,1.28c-7.91.26-7.42,7.65-12,11.77l7.29,1.08c-2.64,1.63-7-1.48-9.18,3.71h13.48c-5.14,2-11,.05-15.81,3l.16,1.41,7.47.45c0,.33,0,.65,0,1a69.25,69.25,0,0,0-7.63.1c-.83.09-1.51,1.39-2.26,2.14l2,1.19c-6.28,2.31-11.54,10.07-19.83,4.87,6,1.66,7.31-3.31,9.95-8.28-4.63,1.07-9.17-2.79-12.33,3.79-1.41,2.94-5.74,4.49-8.74,6.66.15.42.3.85.46,1.27h10.08c-7.05,1.24-14.7-.2-19.47,7.84l-.73-1.48a22,22,0,0,1,2-2.32c12.32-11.2,24.77-22.26,36.95-33.6,3.72-3.47,8-7.2,9.77-11.69,2.7-6.71,8.94-10.91,11.27-17.26,2.89-7.86,10.39-12.26,13.76-20.81l-10,7.8-.51-.54c5.33-4.73,10.74-9.39,15.94-14.27.92-.87,1-2.65,1.46-4-1.38.44-3.05.51-4.08,1.37-9.7,8.1-19.28,16.34-28.91,24.53a7.23,7.23,0,0,1-4.39,2c1.37-1.26,2.7-2.56,4.11-3.76,9.5-8.08,19.06-16.1,28.48-24.27,1.16-1,1.61-2.8,2.39-4.23l-3.63-.66v-7.27l-46.38,39.15-.88-1q6.75-5.85,13.51-11.69c2.51-2.17,4.83-4.68,7.64-6.39,4-2.43,1.62-5.89,2-8.89l-1.4-.22c4.37-5.37,8.78-10.71,13-16.17.49-.62.1-1.92.12-2.9,3.55-4.29,3.55-4.29.42-7l-5.39,3.39a22.07,22.07,0,0,1,2.82-3.24c2.56-2,2.4-3.61-.18-5.12L304,276.17l2.84-3.74c-8.4-2.16-8.72-1.89-6.92,5.68l4.26-2.12C299,280.94,294,286.1,288.6,290.78c-4.3,3.74-9.1,6.89-13.68,10.3.65-.75,1.27-1.52,2-2.23,22.38-22.72,30.94-50,26.22-81.34-1-6.82-3.27-13.46-5.09-20.74l15.52,17a35.88,35.88,0,0,0,1.25-3.94,324.14,324.14,0,0,0,5-75.52A57,57,0,0,0,315.93,118c-1.88-5-6.35-6.23-10.49-2.93-3,2.37-6.11,5.74-7,9.22a94.38,94.38,0,0,0-2.95,22.12c-.08,10.79,1.08,21.59,1.54,32.4.22,4.86,0,9.74,0,14.62l-1.64.25a74.22,74.22,0,0,1-2-7.66c-.82-5.57-.61-11.4-2.2-16.71-3.27-10.91-12.8-17-24-10.58a100.39,100.39,0,0,0-35.44-16.55,11.28,11.28,0,0,1-5.89-4.38c-4.27-6.26-8.09-12.83-12.08-19.28l-1,.2c-.48,7-1,14-1.45,21.23l-10.17.49c-1.71-14.78-3.34-29-5.06-43.8L78.92,91.52c3.48,31.31,2.83,61-16.76,86.41,10.67,18.92,21,37.25,31.36,55.59l1.2-.21c.24-2.7.48-5.4.76-8.64l11.64-1.39c-3,5.17-6.27,10.12-8.79,15.42-.49,1,1.53,4.56,2.86,4.85,1.6.36,4.4-1,5.41-2.52,1.61-2.38,2.17-5.47,3.18-8.27l2,.51-.64,11.09,8,.9,0,.62-9.71,1.1.26,1.6,10.13,1.31a16.12,16.12,0,0,1-7.11,1.11c-3.76,0-3.76,0-4.54,3.2l12.52,1.14v1H107c.34,1.23.41,2.3.68,2.35,4.88.93,9.78,1.74,14.68,2.57l0,1.11h-12l0,1.61,13,1.44,0,1H112.37l-.08,1.5,13,1.61,0,.37-7.61.83.1,1.22,9.91.83-.1,1.43H116.28L116,276a22.18,22.18,0,0,0,4.31,1c5.91.22,10.41,1.41,14.23,7.31C155,315.8,192,331,229.1,324.15c14-2.6,26.39-8.85,38.18-16.54a33.37,33.37,0,0,1-3.14,3.64q-33.45,29-66.95,58c-2.38,2.06-5,4-6.91,6.41-1.46,1.85-3.07,4.67,1.18,5.8l-2.9,8.19,1.21.62,4.53-2.63c-1.17,3.39-7.35,4.45-4.42,10ZM86.92,284.48c-1,.5-2.81,1.21-2.75,1.47.7,3,1.7,6,2.62,8.95l2-.57c-.57-2.88-1.15-5.75-1.72-8.62l2.44-.28-1-8.27-2.58.36ZM51.2,266.26c-1.08.36-3.13.82-3.1,1.08.24,2.5.82,5,1.31,7.44l2.35-.18.3-6.71c4.3,2.33,3.83-1.54,3.62-3.33s-1.78-3.66-2.75-5.49l-1.73.2ZM78,289.58c4,1.32,3.22-2,2.73-3.46-1-2.8-2.71-5.33-4.13-8l-1.78.66,1.87,7.54c-1.37-.73-2.71-2-3.43.81-1.26,5,1.63,8.13,4.06,11.54l1.37-.26Zm6.77-20.09,2.2,1.24c.22-1.39,1-3,.56-4.13-1.23-3.36-2.93-6.54-4.45-9.8l6.25,8.85c1-2.22,1.64-3.82,2.33-5.42l2.41,3c2.38-5.43-1.33-15.56-8.32-21.45a21.23,21.23,0,0,0,.87,8.48c1.07,2.93,2.93,5.57,4.44,8.33l-7.83-9.47V257c-.69,1.78-2,3.6-1.91,5.31s1.67,3.49,2.59,5.22l-4.08-3.35-1.16.34,1.22,6.89c-4-.22-3.68,2.69-2.91,4.82,1,2.79,2.86,5.28,4.36,7.89l1.89-.67-1.91-7.17,4.08,2.1C85.14,274.79,85,272.14,84.77,269.49Zm-1,31.06-2.75-2.46c-3.14,7.14,2.29,11.25,4.3,16.39l1.85-.43L84.86,302l1.49,2.37c1.73-6,1.16-7.88-4.55-12.73Q82.81,296.08,83.8,300.55Zm-17.75-6.68c3.19-1.6,3.67-4,1.87-6.9-1.36-2.17-3.19-4.08-4.33-6.34-1.73-3.42-3.05-7.05-4.54-10.59l-2,.37c.27,2.36.55,4.72.82,7.08-5.14,1.53-2.63,5.51-2.77,8.64-2.92,4.13-2.64,10.33,1.13,13.7,1.25,1.13,3.58,1.06,6,1.68-1.07-3.37-1.7-5.38-2.33-7.38l4.35,6.09Zm273-52.64c1.43-4.84,2.8-8.73,3.7-12.73,2.1-9.29,2.21-18.46-2.6-27.11-3-5.38-9.3-7.88-13.84-5.51-4.2,2.18-9.38,21.1-6.33,24.66C325.87,227.42,332.23,233.9,339,241.23ZM66.58,91.32c-1.08,7.71-1.52,14.93-3.2,21.84-3.06,12.58-6.53,25.09-10.48,37.42-2.2,6.88-.68,12.22,4.93,18.28,2.65-26.71,12.1-51.32,13.29-77.54Zm-13.83-.11c.41,17.17-3.27,33.36-9.35,49.14-.86,2.24.6,5.38,1,8.11l1.64-.1C53,130,61.3,111.85,58.92,91.21ZM354,229.45l-1.64-.7c-3.19,5.06-6.39,10.11-9.53,15.2a1.43,1.43,0,0,0,0,1.35c4.67,5.13,9.4,10.2,14.12,15.29l1.28-.86Q356.16,244.59,354,229.45ZM57.11,186c-3.83,2.27-3.73,4.57-1.85,7.7,3.51,5.82,6.52,11.94,9.91,17.84,1.9,3.3,4.45,5.9,9.24,6.09C68.49,206.79,62.86,196.49,57.11,186ZM56.77,46l-1.32-.71c-1.2,1.53-3.44,3.06-3.44,4.6,0,9.24.43,18.48.74,28l6.15.3C58.26,68.09,57.65,58.52,57,49,57,48,56.86,47,56.77,46ZM61.13,2.45c-2.7,2.08-6.05,3.35-6.35,5.12-1.55,9.3-2.34,18.74-3.43,28.54,6.1-1.27,5.76-4.91,5.55-8.42,0-.61-.88-1.26-.78-1.78C57.64,18.5,59.27,11.11,61.13,2.45Zm320,255.77c3.5-5.16.64-10.48.11-15.68-.56-5.43-1.6-10.82-2.42-16.22C374.25,237.47,379.51,247.64,381.13,258.22Zm-43.86,62.26c-9.45,4.83-17,11.41-21.35,21.19C323.41,334.94,331.92,329.25,337.27,320.48ZM320.66,340.9c7,0,13.1.08,19.2-.09.91,0,1.8-1.25,2.7-1.91-.95-.63-1.87-1.73-2.86-1.81-3.79-.29-7.7.23-11.39-.47S322.76,337.23,320.66,340.9Zm23,4.66c-4.17-3.92-25.72-3.09-28,0ZM375.54,238.7l-1.7-.08c-2,7.69.48,14.9,2.11,22.21l2.4-.26Q376.94,249.64,375.54,238.7ZM361,229.14c1.09,7,2.09,13.43,3.31,21.29C367.25,242.11,365.74,233.17,361,229.14ZM70.48,303.22c-3.47,7.82,1.91,11.63,4,17.19C78,313.31,72.66,309.38,70.48,303.22Zm5.46,7.29c2.79-6.74-1.08-10.72-4-15.49C68.78,301.61,73.2,305.42,75.94,310.51ZM51.61,186.16c3.34-5.77,3.28-6.11-2-12.7C47.06,179.41,47.14,179.92,51.61,186.16ZM328,334.77h8.89a5.79,5.79,0,0,0,2-.08,5.41,5.41,0,0,0,2.3-1.46c.19-.24-.41-1.56-.95-1.89C337.5,329.69,330.4,331.45,328,334.77Zm43.85-86.39c-3.14,4.86-2.71,11.59,1.65,15.08C373,258.65,372.45,253.84,371.85,248.38ZM81.34,231.17l-2,.44,2.31,11.45C86.75,238.15,82.87,234.87,81.34,231.17Zm-24,17.92c-4.43,6-4.21,7.72,1.45,12.18ZM39.45,166.3c3.64-5.93,3.54-7.31,0-10.44ZM281.62,383l-.14-1.71c-5.74-1.14-6.66-.88-8.57,3.12Zm-4.41-5.12c.34.88.68,1.76,1,2.64l6.59-2.72-1-2.54Z"/><path d="M127.1,584V505.7c.65-.29,1-.6,1.2-.52,7.22,2.94,13.91,3.18,21.79.37,11.25-4,25.25,2.4,31.61,12.93,6.23,10.3,6.45,23.64-1.74,34.12-9.06,11.59-21.06,13.17-33,10.23-1.56-.39-3.07-1-4.92-1.59,0,4.52-.36,8.71.09,12.82s-1.38,5.89-5.06,6.88a76.44,76.44,0,0,0-8,3.06Zm29.51-34.93c6.93,0,14-7.23,14.21-14.41s-7.19-14.78-14.32-14.73a14.57,14.57,0,0,0,.11,29.14Z"/><path d="M59,531.81H41.79c-2.51,4-3.84,8.3-6.74,10.38-6.32,4.5-15.32,1.39-15.8-7.41-.37-6.8-.26-13.65,0-20.47.2-5.52,3.82-9,8.9-9.24,6.84-.3,9.7,1.87,10.92,8.26.53,2.75,1.56,4.73,6.17,2.65-2.16-4-3.73-8.3-6.43-11.65-3.6-4.46-8.65-5.66-14.22-3.4s-9.09,6.55-9.43,12.55c-.42,7.3-.34,14.66,0,22,.25,5.89,3.71,10.08,8.93,12.49,4.87,2.24,9.79,1.59,13.68-2.14,2.25-2.16,4-1.7,6.08-.39,3.19,2,6.35,4,9.53,6-9.14,16.64-37,17.31-47.9.64-3-4.65-4.41-10.82-5-16.46-.85-7.39,0-15-.26-22.45-.59-14.91,13.3-27.62,28-28.42,16.1-.87,32.22,13.85,31,31.33C58.72,521.18,59,526.32,59,531.81Z"/><path d="M63.39,563.89V485.46c.38-.1.56-.21.69-.17,13.87,4,13.87,4,14,18.48,0,1.16,0,2.32,0,3.14,5.44-.63,10.7-1.6,16-1.77,13.81-.46,25.81,10.87,27.9,24.76,2.31,15.39-6.34,28.74-21.44,33-4.6,1.31-9.79.92-14.69.7-3.11-.14-5.45-2.76-9.48-.13C73.31,565.47,68,563.89,63.39,563.89Zm29.15-14.82c6.95,0,14-7.1,14.25-14.35s-7.09-14.8-14.22-14.79a14.57,14.57,0,0,0,0,29.14Z"/><path d="M307.79,485.1v78.58H293.35V508.84l-.88-.18-4,11.24c-6.92-.35-13.46.4-17,7.28a20.16,20.16,0,0,0-2.28,8.28c-.28,9.29-.1,18.59-.1,28.18H254.52V505a27.12,27.12,0,0,1,3.18,1c5.88,2.62,11.44,2.3,17.68.26,5.3-1.74,11.36-1.19,17.79-1.7a84.87,84.87,0,0,0-.08-10.07c-.45-3.77,1.3-5.34,4.55-6.23S304.15,486.24,307.79,485.1Z"/><path d="M248.48,541.69H209.67c1.21-4.3,2.23-8.63,3.73-12.79.33-.92,2.31-1.69,3.56-1.75,4.46-.21,8.94-.08,13.56-.08-3-5.37-7.73-7.89-12.89-7.11-5.63.85-11.07,6-12.43,11.72-1.07,4.48,1.4,11.44,5.25,14.07,4.51,3.08,9.2,4.73,14.7,2,1-.51,3.65.47,4.51,1.56A110.15,110.15,0,0,1,236,559.1c-10.86,8.48-30,5.24-38.76-4.23s-8.6-28.19-3.21-36.32c9-13.5,23.42-16.29,35.39-12.1C243.45,511.36,251.55,524.58,248.48,541.69Z"/><path d="M371.3,563.57V549.43h53.44v14.14Z"/><path d="M312.52,549.32h53.16v14.36H312.52Z"/><path d="M120.05,325.72c2.42,4.09,5,8.11,7.26,12.27q15.31,27.92,30.51,55.9c1.27,2.33,2.5,4.74,5.86,4.07-2.09,3.25-4.24,3-6-.19q-18.81-35-37.48-70.15A5.09,5.09,0,0,1,120.05,325.72Z"/><path d="M152.67,397.72l-27-50,1.14-.62,27.17,49.93Z"/><path d="M103,314.07l21.59,40-1.34.72-21.39-40.05Z"/><path d="M235.81,375.15l29.59-25.44.87,1-29.46,25.64Z"/><path d="M216.05,376.56a73.51,73.51,0,0,1,5.77-6.42c6-5.34,12.2-10.49,18.33-15.72-.38.84-.54,1.92-1.17,2.46C231.38,363.49,223.71,370,216.05,376.56Z"/><path d="M257.81,386.94l-21.63,19.41-.94-1.07,21.89-19.21Z"/><path d="M254.06,343.58a104.65,104.65,0,0,1,7.54-8.18c4.34-3.85,9-7.34,13.55-11-.3.71-.41,1.65-.93,2.09C267.53,332.24,260.79,337.9,254.06,343.58Z"/><path d="M144.6,394.44l-12.69-23.78,1-.56,13,23.54Z"/><path d="M117.39,362.76,130.3,386.3l-1.4.74-12.06-23.78Z"/><path d="M106.93,310.12q6.3,11.61,12.58,23.22l-1.2.64L105.8,310.69Z"/><path d="M241.34,387.7l-17.43,15.52-.84-.92,17.26-15.63Z"/><path d="M312.37,325.26l-15.54,14.09-1.05-1.21,16.08-13.42Z"/><path d="M239,364.33l14.51-12.58.87,1-14.49,12.51Z"/><path d="M116.84,363.26c-2.62-4.78-5.26-9.56-7.86-14.35a2.36,2.36,0,0,1,.08-2.58q4.17,8.22,8.33,16.43Z"/><path d="M151.28,373.07Q145,361.4,138.76,349.73l1.08-.6,12.58,23.15Z"/><path d="M220.05,365.56c1.43-1.75,2.63-3.75,4.31-5.2,8.53-7.38,17.18-14.63,25.79-21.92-.22.6-.26,1.41-.69,1.77Q234.81,352.93,220.05,365.56Z"/><path d="M262.62,186.77c4.12,4.14,4.94,8.67,1.6,12.72C253.69,212.24,251,227.15,251.87,243c.58,10.77,2,21.5,3.07,32.64l9.93.81c-6.43,7.94-13.83,13.09-22.75,17.45,1.09-5.15,1.54-9.82,3.1-14.08,3.28-9-2.68-13.22-8.43-18.41-1.58,10-2.92,19.46-4.6,28.88-1.51,8.47.16,7.94-9.36,9-25.36,2.89-46.44-5.55-61.94-25.75s-17.84-42.79-8.78-66.55c.51-1.32,1.29-2.54,2.35-4.61,1.27,9.67,2.42,18.39,3.57,27.12l.93.1c1.56-5.08,3.16-10.15,4.69-15.25s2.91-9.92,4.28-14.91c.37-1.38,1-3.06.52-4.22-1.39-3.47,0-5.43,2.56-7.63,2.34-2,4.83-4.51,5.85-7.3,2.07-5.61,6.54-7.49,11.63-9.47l4.47,6.68L201.9,168l1.76.94a25.16,25.16,0,0,1-1.59,4.79,61.85,61.85,0,0,1-3.8,5.25c-2.07,3-1.94,5.63.8,8.22,1,1,1.53,2.42,2.74,4.41.95-1.66,2.6-3.27,2.28-4.22-1.47-4.39,2-5.8,4.29-7.82,4.22-3.76,8.52-7.47,13-10.86a8.4,8.4,0,0,1,5.73-1.61c12.22,2.17,22.87,7.64,32.73,16.62-6,0-11.18.11-16.36,0-3.09-.09-5,.36-6.35,3.88-1.6,4.2-4.63,7.86-7,11.76l-1.26-.64c1.17-2.31,2.35-4.61,3.71-7.27l-4.36-.89.86,1,7.62-6.57-.9-1.42c-3.91.13-8.15-2.13-12,2.38l3.94.54c-9.84,2.57-12.14,12.25-14.45,20.09C212,210.86,216.92,217,219,222.29l1.46-.38q1.72-5.7,3.47-11.41l.93.16a40.24,40.24,0,0,1-.88,6.24c-2.19,7.25,0,13.39,4.56,18.94.77.92,2.18,2.34,2.81,2.13a4.87,4.87,0,0,0,3-2.87c.83-4.22,1.15-8.53,1.72-12.8,1-7.21,1.76-14.45,3-21.6.78-4.33,4.27-5.8,9.63-6.41-1.68,3.12-3.41,5.28-4.05,7.73-2,7.85-3.91,15.76-5.39,23.73-.79,4.22-.24,8.69-1,12.91-1.84,10,1.5,18.2,8.64,26.16.9-14,.42-27.72,3-40.82C252.43,211.44,258.14,199.51,262.62,186.77Zm-66.48,30.54c-2.34,15-4.52,29.49-1.93,44.12.39,2.22,2.69,4.09,4.11,6.13a79.29,79.29,0,0,0,5.9-5.37,5.32,5.32,0,0,0,.86-3.31c0-8-.63-16,.16-23.84S202.63,222.17,196.14,217.31Zm-12-13.72c-3.61,8.34-4.14,14.45-1.06,19.26a8.73,8.73,0,0,0,5.79,3.58c1.16.11,3.11-2.59,3.85-4.38,2-4.82,1.59-9.24-3.13-12.69C187.65,207.94,186.21,205.8,184.16,203.59Zm28.51-17.88c-8.88,5-10.56,11.3-2.4,19.51l7-12.13-2.28-.6c4.12-.6,6-2.91,7.61-9.47-2.2,0-4.36-.15-6.48,0a37.34,37.34,0,0,0-5.27,1.26Zm-5.74,42.6c-1.19,8.73,1,15.25,5.55,17.22,3,1.31,5.73,1,8-2.39Zm-30.61-18.79c7.68-6.39,6.86-11.09-2.19-14.93C174.84,199.47,175.54,204.21,176.32,209.52Z"/></g></g></svg>