<svg id="Layer_1" data-name="Layer 1" xmlns="http://www.w3.org/2000/svg" viewBox="0 0 409.48 418.09"><defs><style>.cls-1{fill:none;stroke:#fff;stroke-miterlimit:10;stroke-width:3px;}.cls-2{fill:#fff;}</style></defs><title>Bperl_LOGO</title><circle class="cls-1" cx="204.74" cy="213.35" r="203.24"/><path d="M334.5,551.29v4.17q2.37,4.34,4.73,8.66c2.34,4.3,4.7,8.59,7,12.92.61,1.14,1.18,2.3,1.76,3.46l2.24.22c-2.54-4.83-5-9.67-7.67-14.44C339.81,561.31,337.18,556.28,334.5,551.29Z" transform="translate(-222.26 -240.44)"/><path d="M407.66,266.39q-2.22,3.9-4.48,7.8l2.25-.08c1.23-2.21,2.45-4.43,3.7-6.63,2.27-4.05,4.63-8.05,6.92-12.09,2.78-4.93,5.52-9.87,8.3-14.8l-2.23-.06q-1.35,2.35-2.67,4.71C415.51,252.28,411.65,259.37,407.66,266.39Z" transform="translate(-222.26 -240.44)"/><path d="M344.14,559.3c-2.37-4.39-4.81-8.73-7.2-13.11-.71-1.29-1.35-2.62-2.05-3.92l-.39-.74v3.89l1.15,2.14c4.73,8.93,9.37,17.91,14.12,26.83,1.18,2.21,2.36,4.4,3.55,6.6l2.5.21q-1.69-3.12-3.37-6.25C349.66,569.75,346.94,564.5,344.14,559.3Z" transform="translate(-222.26 -240.44)"/><path d="M406.67,259.19c-2.93,5.12-6,10.18-8.95,15.28.69,0,1.41-.09,2.14-.12,0-.05,0-.09,0-.14a2.2,2.2,0,0,1,1.17-1.74,5.35,5.35,0,0,0,1.32-1.93c2.2-4.33,4.57-8.56,7-12.76,1.62-2.79,3.32-5.53,4.91-8.33A11.36,11.36,0,0,0,415,247c.08-.29.08-.7.27-.84,2-1.43,2.82-3.7,4-5.7l-2.05,0-1.14,2C412.91,248,409.85,253.63,406.67,259.19Z" transform="translate(-222.26 -240.44)"/><path d="M357.92,475.94c3.71.13,7.42.39,11.13.57,3,.14,6,.25,8.95.39v-1.71l-4-.17c-2.91-.14-5.82-.48-8.74-.61-5.06-.23-10.12-.35-15.17-.56q-7-.28-14-.66l-1.61-.09v2.16q4.61.19,9.21.35C348.44,475.77,353.18,475.79,357.92,475.94Z" transform="translate(-222.26 -240.44)"/><path d="M392.42,274.87l2.43-.2c.51-.89,1-1.79,1.53-2.68,1.62-2.8,3.33-5.54,4.95-8.33,1.19-2.05,2.31-4.14,3.44-6.23,1.61-3,3.13-6,4.8-8.89,1.57-2.72,3.18-5.41,4.8-8.1h-2.2q-6,10.4-11.92,20.8Q396.34,268,392.42,274.87Z" transform="translate(-222.26 -240.44)"/><path d="M370,482.31c2.67.13,5.35.23,8,.34v-1.83c-2.19-.17-4.39-.33-6.58-.44-8.78-.4-17.56-.56-26.33-1-3.53-.17-7.06-.43-10.59-.7v2.07c4.57.14,9.13.28,13.69.47C355.46,481.54,362.72,482,370,482.31Z" transform="translate(-222.26 -240.44)"/><path d="M351.18,318.13c2.53.14,5.05.16,7.58.27q7.11.3,14.23.64l5,.23V305.52l-.3,0a3.82,3.82,0,0,1,.3-1.24V299.9c-.69,1.09-1.24,2.2-1.8,3.31-1,1.94-1.71,2.27-3.93,1.77.65-1.22,1.23-2.4,1.89-3.54,1.27-2.19,2.56-4.37,3.84-6.56v-4c-.56,1-1.12,2-1.69,3q-2.79,4.92-5.64,9.82c-.87,1.49-1.41,1.63-3.65.95,1-1.48,2-2.74,2.77-4.08,1-1.68,1.41-3.65,2.64-5.27a49.53,49.53,0,0,0,3-5.09L378,285.8v-3.89c-1.12,2-2.25,4-3.42,6-1.87,3.19-4,6.24-5.87,9.42a39.61,39.61,0,0,0-2.27,4.68c-1.25,2.85-2,3.26-5.35,2.66a24.89,24.89,0,0,1,1-2.28c4.83-8.51,9.7-17,14.53-25.51,2.37-4.18,4.65-8.41,7-12.58,2.18-3.84,4.44-7.62,6.64-11.44q3.52-6.07,7-12.15l-2.59.09Q388.3,252,381.91,263.09c-3.94,6.85-7.94,13.66-11.78,20.56-2.8,5-5.78,10-9,14.71a62.53,62.53,0,0,0-3.41,6.4l-21.08-.62-2.1-.05v13.16c1.16,0,2.32,0,3.47.09C342.38,317.5,346.78,317.89,351.18,318.13Z" transform="translate(-222.26 -240.44)"/><path d="M389.81,261.19q-4.05,7-8,14l-.66,1.17c.83-.15,1.71-.29,2.63-.43,1-1.72,1.93-3.44,2.91-5.16,1.44-2.53,2.93-5.05,4.36-7.59,2.83-5,5.57-10,8.45-15,1.47-2.54,3-5.06,4.49-7.58l-2.18.05c-1.08,1.9-2.15,3.8-3.24,5.69C395.67,251.27,392.7,256.21,389.81,261.19Z" transform="translate(-222.26 -240.44)"/><path d="M358.62,472c4.5.24,9,.43,13.52.66l5.86.3v-2l-5.2-.25c-6.39-.36-12.77-.89-19.17-1.26-4.58-.27-9.17-.35-13.75-.61-1.79-.1-3.58-.22-5.38-.34v2.15c3.7.16,7.39.34,11.09.54C349.93,471.46,354.27,471.78,358.62,472Z" transform="translate(-222.26 -240.44)"/><path d="M342.42,486.44c5.91.29,11.82.62,17.74.88s11.9.42,17.84.71V486.2c-4.64-.1-9.28-.52-13.92-.73-3.79-.18-7.57-.53-11.36-.65-3.15-.09-6.3.05-9.44.08a2.5,2.5,0,0,1-.47,0c-2.74-.31-5.47-.68-8.21-.92h-.1v2.14l2,.07C338.46,486.27,340.44,486.34,342.42,486.44Z" transform="translate(-222.26 -240.44)"/><path d="M386.88,275.47q1.23-.17,2.58-.3,1.62-2.91,3.26-5.8c1.41-2.47,2.88-4.89,4.27-7.36,2.11-3.76,4.16-7.56,6.29-11.3,1.6-2.79,3.3-5.53,4.94-8.3l1.16-1.95-2.09,0q-7.53,13.09-15.17,26.13C390.39,269.58,388.63,272.52,386.88,275.47Z" transform="translate(-222.26 -240.44)"/><path d="M338.78,498.05a60.94,60.94,0,0,0,6.63.29l19.93.87c4.22.18,8.44.33,12.66.55v-2.25c-4.61-.14-9.22-.23-13.83-.4-3.32-.13-6.62-.51-9.94-.63-5.44-.2-10.88-.27-16.32-.44a19.25,19.25,0,0,1-2.75-.51,1.93,1.93,0,0,1,2.24-1.09c3,.11,6,.31,9,.42,2.13.08,4.27.06,6.39.13,3.24.1,6.48.22,9.72.38l15.54.78v-1.87l-2.55-.11c-7.49-.34-15-.7-22.47-1-.7,0-1.41,0-2.12.06a4.29,4.29,0,0,1-1.4.12c-3.33-1-6.7-.35-10-.39a32.73,32.73,0,0,1-4.91-.52v5.83A15.44,15.44,0,0,1,338.78,498.05Z" transform="translate(-222.26 -240.44)"/><path d="M378,490.67c-4.48-.24-8.95-.52-13.43-.79-5-.29-9.93-.64-14.9-.87-2.85-.14-5.7-.07-8.55-.15-.93,0-1.86-.27-2.8-.31-1.27-.06-2.55-.1-3.82-.09v1.88L378,492.5Z" transform="translate(-222.26 -240.44)"/><path d="M334.5,562.47V567q2.07,3.91,4.17,7.82c.89,1.67,1.8,3.33,2.7,5l2.1.24c-1.69-3.24-3.11-6.62-4.8-9.86C337.32,567.59,335.91,565,334.5,562.47Z" transform="translate(-222.26 -240.44)"/><path d="M507,560.29a88.69,88.69,0,0,0,11.5-8.85q3.07-3,5.9-6.22-4,3.36-7.91,6.74C513.3,554.71,510.15,557.5,507,560.29Z" transform="translate(-222.26 -240.44)"/><path d="M523.18,539.16c-4.92,4.22-9.89,8.4-14.82,12.61s-9.69,8.32-14.54,12.49l-7.4,6.35q2.67-1,5.22-2.13c.76-.66,1.53-1.32,2.34-1.93,2.19-1.65,4.06-3.71,6.16-5.49,3.18-2.69,6.47-5.25,9.64-7.95,7.33-6.27,14.62-12.59,21.94-18.87.69-.6,1.39-1.17,2.08-1.76,1-1.57,1.88-3.19,2.75-4.83a1.82,1.82,0,0,0-.23.15C531.9,531.54,527.57,535.38,523.18,539.16Z" transform="translate(-222.26 -240.44)"/><path d="M426,250.62c.35,1.07-.29,1.62-.69,2.34q-5.88,10.5-11.76,21h2.39l4.19-7.36c1.17-2.06,2.28-4.14,3.42-6.21.6-1.08.81-2.32,1.61-3.34a12.74,12.74,0,0,0,1-1.57,152.5,152.5,0,0,0-5.81,15.65c-.53.95-1.06,1.9-1.6,2.85a135.82,135.82,0,0,1,25.67,2.54c.47-1.47,1-3,1.57-4.64,1.85-4.87,4.09-9.68,6.62-12.64a9.8,9.8,0,0,1,3.61-2.73,4.28,4.28,0,0,1,1.58-.24c4.15.18,6,2.78,6.5,6.39a22.9,22.9,0,0,1,.19,2.83c0,5.36-1.87,11.92-3,16.41,18.21,8.25,29.06,23.31,29.06,47.06,0,24.44-15.28,44.07-42.42,52.31-.08,1-.17,2-.25,3-.8,11.16-1.2,21.44-1.88,31.25-.14,2.07-.29,4.11-.47,6.14q4,.89,7.86,2c.43-9.69,1.15-18.15,3.54-23.06,1.55-3.19,3.81-4.89,7.14-4.45l.36.05c1.24,2.1,2.49,4.19,3.77,6.26,2.6,4.2,5.39,8.29,8,12.47.39.62.77,1.25,1.15,1.88a80.3,80.3,0,0,1,.09,10.42c-.14,2.5-.39,5-.69,7.42q2.52,1.77,4.82,3.75a80.75,80.75,0,0,0,1.79-11.61c4.17,6.75,8.36,13.48,12.49,20.25,1.18,1.93,2.1,4,3.24,6a16.92,16.92,0,0,0,1.51,1.78c-1,2.48-1.94,4.89-2.93,7.2a60.1,60.1,0,0,1,2.19,8.38c1.37-2.34,2.67-4.72,3.85-7.15.31-.65.6-1.3.9-2,1.63,2.43,3.31,4.83,4.77,7.38,1.87,3.27,3.7,6.56,5.54,9.85l-.42.47c-2-.18-4.07-.41-6.11-.54-2.52-.17-5-.31-7.56-.47.05.67.09,1.34.12,2l8.31.66,6.62.53c-.69.36-.86.53-1,.53L501,481c0,.61,0,1.24,0,1.86l5.28.27c3.13.17,6.26.34,9.4.47l-2.83,4.09c-4-.28-7.94-.58-11.91-.84,0,.69-.07,1.38-.12,2.06l10.73.65L509.16,493c-2.76-.19-5.53-.38-8.3-.55l-.36,0c-.07.67-.16,1.32-.25,2l7.61.5-2,2.92-5-.31-1.15-.06c-.12.59-.24,1.18-.37,1.77l2.06.12v.57c-.74,0-1.47,0-2.21,0q-.23,1-.48,2c1.43.07,2.85.16,4.28.24-.47.71-.94,1.42-1.4,2.14l-3.48-.25c-.2.65-.41,1.29-.62,1.92l1.17.18,0,.47-1.36-.05c-11.11,31.26-45.77,42.44-82.8,42.44-15.5,0-28-.5-36.5-2V502.66h-.53c-5.91-.18-11.81-.55-17.72-.75-4-.14-8.07-.13-12.1-.23a21.18,21.18,0,0,1-4.44-.35,15.25,15.25,0,0,0-7.68,0l-1-1.93v22.15c2.32,3.88,5.37,7.28,7.34,11.4,1.57,3.26,3.44,6.38,5.13,9.59,2,3.89,4,7.82,6.09,11.7,2.21,4.15,4.55,8.24,6.73,12.41,2.4,4.57,4.67,9.21,7,13.81a15,15,0,0,0,1,1.54c10.07.57,21.49.93,34.18.93,9.44,0,18.36-.31,26.81-.9l.28-.24c5.3-4.62,10.46-9.41,15.76-14s10.6-9,15.86-13.52c1.67-1.44,3.32-2.89,5-4.34-.51,2.69-.92,5-1.16,6.82l-1.65,1.43c-5.7,4.87-11.5,9.63-17.14,14.55-3.3,2.87-6.53,5.81-9.77,8.74,1-.09,2.07-.2,3.09-.31,1.63-1.46,3.26-2.92,4.87-4.4.69-.62,1.2-1.44,1.88-2.07.51-.46,1.21-.69,1.75-1.12,1.4-1.14,2.77-2.32,4.14-3.49l12.36-10.63.21-.17a1.93,1.93,0,0,0,.1,1c.11-.45.2-.9.29-1.35q7.59-6.54,15.17-13.09,11.91-10.3,23.79-20.66c2.32-2,4.5-4.22,6.73-6.34.17-.16.28-.39.47-.51,5.88-3.8,10.59-9,16-13.34.9-.72,1.85-1.38,2.91-2.17L531.8,506a20.56,20.56,0,0,1-1.88,2.23q-4.3,3.84-8.71,7.58c-1,.86-2.19,1.53-3.24,2.36-.88.7-1.67,1.52-2.52,2.27l-11.53,10.18c-4.91,4.34-9.76,8.72-14.73,13-4.43,3.8-9,7.43-13.47,11.2-2.59,2.2-5,4.59-7.59,6.81s-5.12,4.21-7.66,6.34c-1.57,1.32-3.05,2.73-4.6,4-3.24,2.77-6.51,5.5-9.75,8.27,1.39-.18,2.77-.38,4.12-.58,2.11-1.82,4.22-3.64,6.31-5.48,6.66-5.83,13.24-11.75,19.91-17.57,3.81-3.33,7.74-6.53,11.58-9.83s7.39-6.44,11.09-9.65l9.81-8.54c2.37-2.07,4.73-4.15,7.11-6.22,4.46-3.89,8.91-7.79,13.41-11.63a15,15,0,0,1,1.53-1.11c-3,3.83-7.25,9.25-10.33,14.12-2,1.79-4.08,3.58-6.13,5.35-3.17,2.74-6.38,5.42-9.53,8.16-2.14,1.86-4.18,3.85-6.33,5.69-2.93,2.52-5.91,5-8.91,7.44s-5.86,4.56-8.66,7-5.38,5.05-8.14,7.49c-3.11,2.77-6.32,5.43-9.49,8.13-2.18,1.87-4.38,3.72-6.58,5.58,1.32-.24,2.62-.49,3.91-.75l4.54-4c2.48-2.19,5.08-4.25,7.59-6.42,3.41-2.94,6.76-5.95,10.19-8.87,4.2-3.58,8.49-7.06,12.68-10.66,5.08-4.37,10.08-8.85,15.14-13.25q3.52-3.06,7.06-6.11c-1,2.19-1.54,4-1.2,5.21a1.84,1.84,0,0,0,1,1.66q-23.41,19.9-46.62,40.07c1.42-.38,2.82-.76,4.2-1.16,3.7-3.24,7.38-6.49,11.12-9.68,5.65-4.81,11.4-9.51,17-14.33s11.53-9.83,17.19-14.86c.39-.09.8-.2,1.26-.34,3-.94,6.22-4.36,9.32-8.73l6.19-5.12,2.47-2,.3.46A93.91,93.91,0,0,0,547,483.94c0-15.68-3.69-29.05-9.73-40.26-.15-.15-.3-.31-.44-.47s0-.15,0-.22a78.47,78.47,0,0,0-4.8-7.62c-.15.72-.31,1.46-.47,2.19l-3.69-4c-4.37-4.79-8.68-9.64-13-14.44l.12-1.5c-1.33-1-2.68-2.06-4.06-3,0,.07,0,.14,0,.2l-.55-.59a102.47,102.47,0,0,0-32.85-14.77v-1a105.73,105.73,0,0,0,13-5.8q-2.55-2.86-5.11-5.72c-.46-.51-.95-1-1.43-1.46a13.49,13.49,0,0,1,6.73-4.91c4.33-1.24,9,.35,12.76,3.84a83.5,83.5,0,0,0,10.12-9c-.07-3.57-.05-7.1.11-10.49.5-10.72,2.37-20,7.22-24,.42-.35.82-.67,1.22-1,4.72-3.43,8.13-2.85,10.56.44a71.87,71.87,0,0,0,1.78-15.92c0-26.5-10.5-46.5-28-59.5-17.94-14.53-41-22.11-74.47-24-1.5,2.68-3,5.36-4.48,8C427.17,249.62,425.86,250.28,426,250.62ZM515.6,498.75c.62-1.06,1.24-2.12,1.84-3.2l5.84.4a17.06,17.06,0,0,1,1.84.41l-7.39,6-.83-1.46c.69-.44,1.27-.8,1.82-1.2.09-.06,0-.29.09-.58ZM513,502.91l1.86.2c.65.07,1.06.33.67,1.38l-3.59,0C512.33,504,512.68,503.45,513,502.91Zm10.91-9.15h-4.77a4.15,4.15,0,0,1,.2-.82,4.39,4.39,0,0,1,.42-.57,3.13,3.13,0,0,0-.52-.21c.35-.65.68-1.32,1-2C522.51,490.5,522.88,491,523.94,493.76Zm-21.65,6.39c.68-1.32,1.58-.48,2.31-.45l-.37.57Zm18,7.91c-1.43,1.22-2.67,2.66-4.14,3.82-7,5.62-13.58,11.79-20.37,17.69l-19.84,17.24c-3.58,3.11-7.14,6.24-10.73,9.34.36-2.16.61-4.32.77-6.48,4-3.46,7.92-6.93,11.9-10.37q9.86-8.53,19.77-17,3.84-3.3,7.81-6.45c1-.82,2.62-1.22,3.19-2.25a8.69,8.69,0,0,1,2.46-2.77c1-.77,2.18-1.35,3.38-2.08,3.15-4.33,7.43-7.65,12.2-10.83l2,3.15C525.79,503.47,523,505.73,520.28,508.06Zm14.51,13c1.08-1.76,2.12-3.57,3.12-5.35l1.18,1.73C537.65,518.62,536.23,519.83,534.79,521Z" transform="translate(-222.26 -240.44)"/><path d="M411.14,274c.74-1.26,1.48-2.52,2.18-3.8,1.89-3.44,3.65-6.94,5.55-10.37,2.72-4.87,5.56-9.67,8.27-14.55q1.23-2.22,2.41-4.47l-2.07-.09q-9.27,16.7-18.61,33.32Z" transform="translate(-222.26 -240.44)"/><path class="cls-2" d="M514.48,508.74c-1.2.73-2.36,1.31-3.38,2.08a8.69,8.69,0,0,0-2.46,2.77c-.57,1-2.16,1.43-3.19,2.25q-4,3.15-7.81,6.45-9.92,8.48-19.77,17c-4,3.44-7.93,6.91-11.9,10.37-.16,2.16-.41,4.32-.77,6.48,3.59-3.1,7.15-6.23,10.73-9.34l19.84-17.24c6.79-5.9,13.33-12.07,20.37-17.69,1.47-1.16,2.71-2.6,4.14-3.82,2.73-2.33,5.51-4.59,8.42-7l-2-3.15C521.91,501.09,517.63,504.41,514.48,508.74Z" transform="translate(-222.26 -240.44)"/><path class="cls-2" d="M537.49,521.26l-6.19,5.12c-3.1,4.37-6.31,7.79-9.32,8.73-.46.14-.87.25-1.26.34-5.66,5-11.42,9.95-17.19,14.86s-11.39,9.52-17,14.33c-3.74,3.19-7.42,6.44-11.12,9.68q5.78-1.68,11.05-3.71l7.4-6.35q7.28-6.25,14.54-12.49c4.93-4.21,9.9-8.39,14.82-12.61,4.39-3.78,8.72-7.62,13.14-11.36a1.82,1.82,0,0,1,.23-.15c1.35-2.56,2.59-5.2,3.71-7.94l-.3-.46Z" transform="translate(-222.26 -240.44)"/><path class="cls-2" d="M334.5,567v6.6c.52.91,1,1.83,1.54,2.75s1,2,1.56,3c1.21.16,2.47.31,3.77.46-.9-1.67-1.81-3.33-2.7-5Q336.57,570.9,334.5,567Z" transform="translate(-222.26 -240.44)"/><path class="cls-2" d="M534.79,521c1.44-1.21,2.86-2.42,4.3-3.62l-1.18-1.73C536.91,517.47,535.87,519.28,534.79,521Z" transform="translate(-222.26 -240.44)"/><path class="cls-2" d="M462.88,558.16l1.65-1.43c.24-1.78.65-4.13,1.16-6.82-1.66,1.45-3.31,2.9-5,4.34-5.26,4.54-10.62,9-15.86,13.52s-10.46,9.41-15.76,14l-.28.24c2.43-.17,4.82-.36,7.16-.59,3.24-2.93,6.47-5.87,9.77-8.74C451.38,567.79,457.18,563,462.88,558.16Z" transform="translate(-222.26 -240.44)"/><path class="cls-2" d="M334.5,577.39v1.55l.88.11-.32-.59Z" transform="translate(-222.26 -240.44)"/><path class="cls-2" d="M509.78,553.11c-3.17,2.7-6.46,5.26-9.64,7.95-2.1,1.78-4,3.84-6.16,5.49-.81.61-1.58,1.27-2.34,1.93A104.84,104.84,0,0,0,507,560.29c3.15-2.79,6.3-5.58,9.49-8.33q3.93-3.39,7.91-6.74a94.74,94.74,0,0,0,9.4-12.74c-.69.59-1.39,1.16-2.08,1.76C524.4,540.52,517.11,546.84,509.78,553.11Z" transform="translate(-222.26 -240.44)"/><path class="cls-2" d="M516.8,533.75c-.34-1.2.16-3,1.2-5.21q-3.54,3-7.06,6.11c-5.06,4.4-10.06,8.88-15.14,13.25-4.19,3.6-8.48,7.08-12.68,10.66-3.43,2.92-6.78,5.93-10.19,8.87-2.51,2.17-5.11,4.23-7.59,6.42l-4.54,4q5.35-1.08,10.37-2.4,23.22-20.16,46.62-40.07A1.84,1.84,0,0,1,516.8,533.75Z" transform="translate(-222.26 -240.44)"/><path class="cls-2" d="M460.47,568c2.54-2.13,5.15-4.17,7.66-6.34s5-4.61,7.59-6.81c4.46-3.77,9-7.4,13.47-11.2,5-4.27,9.82-8.65,14.73-13l11.53-10.18c.85-.75,1.64-1.57,2.52-2.27,1-.83,2.22-1.5,3.24-2.36q4.41-3.74,8.71-7.58A20.56,20.56,0,0,0,531.8,506l-2.08-3.22c-1.06.79-2,1.45-2.91,2.17-5.4,4.36-10.11,9.54-16,13.34-.19.12-.3.35-.47.51-2.23,2.12-4.41,4.32-6.73,6.34q-11.85,10.38-23.79,20.66-7.57,6.57-15.17,13.09c-.09.45-.18.9-.29,1.35a1.93,1.93,0,0,1-.1-1l-.21.17L451.7,570.06c-1.37,1.17-2.74,2.35-4.14,3.49-.54.43-1.24.66-1.75,1.12-.68.63-1.19,1.45-1.88,2.07-1.61,1.48-3.24,2.94-4.87,4.4q3.6-.37,7.06-.84c3.24-2.77,6.51-5.5,9.75-8.27C457.42,570.71,458.9,569.3,460.47,568Z" transform="translate(-222.26 -240.44)"/><path class="cls-2" d="M473,564.92c2.76-2.44,5.35-5.08,8.14-7.49s5.79-4.63,8.66-7,6-4.92,8.91-7.44c2.15-1.84,4.19-3.83,6.33-5.69,3.15-2.74,6.36-5.42,9.53-8.16,2.05-1.77,4.09-3.56,6.13-5.35,3.08-4.87,7.31-10.29,10.33-14.12a15,15,0,0,0-1.53,1.11c-4.5,3.84-9,7.74-13.41,11.63-2.38,2.07-4.74,4.15-7.11,6.22l-9.81,8.54c-3.7,3.21-7.37,6.46-11.09,9.65s-7.77,6.5-11.58,9.83c-6.67,5.82-13.25,11.74-19.91,17.57-2.09,1.84-4.2,3.66-6.31,5.48q3.39-.51,6.65-1.09c2.2-1.86,4.4-3.71,6.58-5.58C466.64,570.35,469.85,567.69,473,564.92Z" transform="translate(-222.26 -240.44)"/><path class="cls-2" d="M359.79,566.66c-2.18-4.17-4.52-8.26-6.73-12.41-2.06-3.88-4-7.81-6.09-11.7-1.69-3.21-3.56-6.33-5.13-9.59-2-4.12-5-7.52-7.34-11.4v7.69q1.37,2.43,2.7,4.88c2.82,5.19,5.55,10.41,8.35,15.61,4.07,7.56,8.17,15.1,12.24,22.66,1.67,3.09,3.32,6.2,5,9.31l5.05.3a15,15,0,0,1-1-1.54C364.46,575.87,362.19,571.23,359.79,566.66Z" transform="translate(-222.26 -240.44)"/><path class="cls-2" d="M344.85,552.42c-2.38-4.45-4.8-8.87-7.18-13.31-1.07-2-2.12-4-3.17-6v8.38l.39.74c.7,1.3,1.34,2.63,2.05,3.92,2.39,4.38,4.83,8.72,7.2,13.11,2.8,5.2,5.52,10.45,8.31,15.65q1.68,3.13,3.37,6.25l4.7.35c-2.68-5-5.41-9.93-8.09-14.91C349.88,561.91,347.39,557.15,344.85,552.42Z" transform="translate(-222.26 -240.44)"/><path class="cls-2" d="M339.23,564.12q-2.36-4.33-4.73-8.66v7c1.41,2.56,2.82,5.12,4.17,7.71,1.69,3.24,3.11,6.62,4.8,9.86,1.44.16,2.95.31,4.5.46-.58-1.16-1.15-2.32-1.76-3.46C343.93,572.71,341.57,568.42,339.23,564.12Z" transform="translate(-222.26 -240.44)"/><path class="cls-2" d="M335.65,547.56l-1.15-2.14v5.87c2.68,5,5.31,10,8,15,2.63,4.77,5.13,9.61,7.67,14.44l3.11.27c-1.19-2.2-2.37-4.39-3.55-6.6C345,565.47,340.38,556.49,335.65,547.56Z" transform="translate(-222.26 -240.44)"/><path d="M345.55,549.74c-2.8-5.2-5.53-10.42-8.35-15.61q-1.33-2.45-2.7-4.88v3.9c1.05,2,2.1,4,3.17,6,2.38,4.44,4.8,8.86,7.18,13.31,2.54,4.73,5,9.49,7.58,14.22,2.68,5,5.41,9.93,8.09,14.91l2.25.16c-1.66-3.11-3.31-6.22-5-9.31C353.72,564.84,349.62,557.3,345.55,549.74Z" transform="translate(-222.26 -240.44)"/><path d="M334.5,573.58v3.81l.56,1.07.32.59,2.22.29c-.51-1-1-2-1.56-3S335,574.49,334.5,573.58Z" transform="translate(-222.26 -240.44)"/><path class="cls-2" d="M497.64,462c1-2.31,2-4.72,2.93-7.2a16.92,16.92,0,0,1-1.51-1.78c-1.14-2-2.06-4-3.24-6-4.13-6.77-8.32-13.5-12.49-20.25a80.75,80.75,0,0,1-1.79,11.61A53.84,53.84,0,0,1,497.64,462Z" transform="translate(-222.26 -240.44)"/><path class="cls-2" d="M353.63,469.5c6.4.37,12.78.9,19.17,1.26l5.2.25V418.44h36c1.77,0,3.52,0,5.26.08.17-1.09.34-2.18.49-3.3.22-1.61.43-3.32.64-5.08a198.77,198.77,0,0,0,.29-24.76c-1.05,0-2.11.06-3.18.06H378V319.27l-5-.23q-7.12-.33-14.23-.64c-2.53-.11-5.05-.13-7.58-.27-4.4-.24-8.8-.63-13.21-.79-1.15,0-2.31-.07-3.47-.09v151.3c1.8.12,3.59.24,5.38.34C344.46,469.15,349.05,469.23,353.63,469.5Z" transform="translate(-222.26 -240.44)"/><path class="cls-2" d="M477.41,427.23a80.3,80.3,0,0,0-.09-10.42c-.38-.63-.76-1.26-1.15-1.88-2.63-4.18-5.42-8.27-8-12.47-1.28-2.07-2.53-4.16-3.77-6.26l-.36-.05c-3.33-.44-5.59,1.26-7.14,4.45-2.39,4.91-3.11,13.37-3.54,23.06a81,81,0,0,1,23.38,11C477,432.22,477.27,429.73,477.41,427.23Z" transform="translate(-222.26 -240.44)"/><path class="cls-2" d="M508.36,478.44c2,.13,4.07.36,6.11.54l.42-.47c-1.84-3.29-3.67-6.58-5.54-9.85-1.46-2.55-3.14-5-4.77-7.38-.3.65-.59,1.3-.9,2-1.18,2.43-2.48,4.81-3.85,7.15a66.9,66.9,0,0,1,1,7.59C503.32,478.13,505.84,478.27,508.36,478.44Z" transform="translate(-222.26 -240.44)"/><path class="cls-2" d="M428.66,389.76c-.4,9.75-.78,19.5-1.84,29.16a135.15,135.15,0,0,1,18.66,2.71c.18-2,.33-4.07.47-6.14.68-9.81,1.08-20.09,1.88-31.25.08-1,.17-2,.25-3a98.41,98.41,0,0,1-19.22,3.66C428.8,386.53,428.73,388.15,428.66,389.76Z" transform="translate(-222.26 -240.44)"/><path class="cls-2" d="M522.16,339.92c-.4.29-.8.61-1.22,1-4.85,4.05-6.72,13.3-7.22,24-.16,3.39-.18,6.92-.11,10.49a74.37,74.37,0,0,0,19.11-35C530.29,337.07,526.88,336.49,522.16,339.92Z" transform="translate(-222.26 -240.44)"/><path class="cls-2" d="M464.47,265.47a22.9,22.9,0,0,0-.19-2.83c-.53-3.61-2.35-6.21-6.5-6.39a4.28,4.28,0,0,0-1.58.24,9.8,9.8,0,0,0-3.61,2.73c-2.53,3-4.77,7.77-6.62,12.64-.58,1.6-1.1,3.17-1.57,4.64a80.81,80.81,0,0,1,17,5.38C462.6,277.39,464.43,270.83,464.47,265.47Z" transform="translate(-222.26 -240.44)"/><path class="cls-2" d="M537.27,443.68l-.4-.69c0,.07,0,.15,0,.22S537.12,443.53,537.27,443.68Z" transform="translate(-222.26 -240.44)"/><path class="cls-2" d="M527.91,433.56l3.69,4c.16-.73.32-1.47.47-2.19A85.1,85.1,0,0,0,515,417.62l-.12,1.5C519.23,423.92,523.54,428.77,527.91,433.56Z" transform="translate(-222.26 -240.44)"/><path class="cls-2" d="M490.73,380.55a13.49,13.49,0,0,0-6.73,4.91c.48.48,1,1,1.43,1.46q2.56,2.85,5.11,5.72a93.62,93.62,0,0,0,12.95-8.25C499.73,380.9,495.06,379.31,490.73,380.55Z" transform="translate(-222.26 -240.44)"/><path class="cls-2" d="M510.92,414.6l-.57-.39.55.59C510.91,414.74,510.91,414.67,510.92,414.6Z" transform="translate(-222.26 -240.44)"/><path class="cls-2" d="M357.68,304.76a62.53,62.53,0,0,1,3.41-6.4c3.26-4.76,6.24-9.67,9-14.71,3.84-6.9,7.84-13.71,11.78-20.56q6.4-11.13,12.81-22.27c-23.47.94-45.26,3.47-60.22,6.62v56.65l2.1.05Z" transform="translate(-222.26 -240.44)"/><path class="cls-2" d="M404.77,257.43c-1.13,2.09-2.25,4.18-3.44,6.23-1.62,2.79-3.33,5.53-4.95,8.33-.52.89-1,1.79-1.53,2.68l2.87-.2c3-5.1,6-10.16,8.95-15.28,3.18-5.56,6.24-11.18,9.4-16.75l1.14-2h-2.84c-1.62,2.69-3.23,5.38-4.8,8.1C407.9,251.46,406.38,254.47,404.77,257.43Z" transform="translate(-222.26 -240.44)"/><path class="cls-2" d="M403.28,250.71c-2.13,3.74-4.18,7.54-6.29,11.3-1.39,2.47-2.86,4.89-4.27,7.36q-1.64,2.89-3.26,5.8c1-.11,1.93-.21,3-.3q3.93-6.81,7.83-13.63,6-10.4,11.92-20.8l-2.79,0-1.16,1.95C406.58,245.18,404.88,247.92,403.28,250.71Z" transform="translate(-222.26 -240.44)"/><path class="cls-2" d="M374.16,301.44c-.66,1.14-1.24,2.32-1.89,3.54,2.22.5,3,.17,3.93-1.77.56-1.11,1.11-2.22,1.8-3.31v-5C376.72,297.07,375.43,299.25,374.16,301.44Z" transform="translate(-222.26 -240.44)"/><path class="cls-2" d="M377.7,305.48l.3,0v-1.28A3.82,3.82,0,0,0,377.7,305.48Z" transform="translate(-222.26 -240.44)"/><path class="cls-2" d="M500.93,486.85c4,.26,7.94.56,11.91.84l2.83-4.09c-3.14-.13-6.27-.3-9.4-.47l-5.28-.27c0,.19,0,.38,0,.58C501,484.59,501,485.72,500.93,486.85Z" transform="translate(-222.26 -240.44)"/><path class="cls-2" d="M371.42,480.38c2.19.11,4.39.27,6.58.44V476.9c-3-.14-6-.25-8.95-.39-3.71-.18-7.42-.44-11.13-.57-4.74-.15-9.48-.17-14.21-.33q-4.6-.15-9.21-.35v3.43c3.53.27,7.06.53,10.59.7C353.86,479.82,362.64,480,371.42,480.38Z" transform="translate(-222.26 -240.44)"/><path class="cls-2" d="M342.81,484.92a2.5,2.5,0,0,0,.47,0c3.14,0,6.29-.17,9.44-.08,3.79.12,7.57.47,11.36.65,4.64.21,9.28.63,13.92.73v-3.55c-2.67-.11-5.35-.21-8-.34-7.26-.33-14.52-.77-21.79-1.08-4.56-.19-9.12-.33-13.69-.47V484h.1C337.34,484.24,340.07,484.61,342.81,484.92Z" transform="translate(-222.26 -240.44)"/><path class="cls-2" d="M500.86,492.45c2.77.17,5.54.36,8.3.55l2.38-3.44-10.73-.65c-.08,1.19-.18,2.37-.31,3.52Z" transform="translate(-222.26 -240.44)"/><path class="cls-2" d="M519.79,492.37a4.39,4.39,0,0,0-.42.57,4.15,4.15,0,0,0-.2.82h4.77c-1.06-2.72-1.43-3.26-3.65-3.58-.34.66-.67,1.33-1,2A3.13,3.13,0,0,1,519.79,492.37Z" transform="translate(-222.26 -240.44)"/><path class="cls-2" d="M383.65,264.32c-2.38,4.17-4.66,8.4-7,12.58-4.83,8.51-9.7,17-14.53,25.51a24.89,24.89,0,0,0-1,2.28c3.39.6,4.1.19,5.35-2.66a39.61,39.61,0,0,1,2.27-4.68c1.9-3.18,4-6.23,5.87-9.42,1.17-2,2.3-4,3.42-6v-5c.95-.21,2-.41,3.12-.61l.66-1.17q4-7,8-14c2.89-5,5.86-9.92,8.73-14.91,1.09-1.89,2.16-3.79,3.24-5.69l-4.47.14q-3.51,6.08-7,12.15C388.09,256.7,385.83,260.48,383.65,264.32Z" transform="translate(-222.26 -240.44)"/><path class="cls-2" d="M416.05,255.39c-2.29,4-4.65,8-6.92,12.09-1.25,2.2-2.47,4.42-3.7,6.63,1.11,0,2.26-.07,3.44-.09q9.35-16.63,18.61-33.32l-3.13-.11C421.57,245.52,418.83,250.46,416.05,255.39Z" transform="translate(-222.26 -240.44)"/><path class="cls-2" d="M500.89,497.51l5,.31,2-2.92-7.61-.5c-.15,1-.32,2.05-.51,3.05Z" transform="translate(-222.26 -240.44)"/><path class="cls-2" d="M338.32,488.55c.94,0,1.87.29,2.8.31,2.85.08,5.7,0,8.55.15,5,.23,9.93.58,14.9.87,4.48.27,8.95.55,13.43.79V488c-5.94-.29-11.89-.45-17.84-.71s-11.83-.59-17.74-.88c-2-.1-4-.17-5.93-.24l-2-.07v2.33C335.77,488.45,337.05,488.49,338.32,488.55Z" transform="translate(-222.26 -240.44)"/><path class="cls-2" d="M516.9,500.87l.83,1.46,7.39-6a17.06,17.06,0,0,0-1.84-.41l-5.84-.4c-.6,1.08-1.22,2.14-1.84,3.2l3.21.34c0,.29,0,.52-.09.58C518.17,500.07,517.59,500.43,516.9,500.87Z" transform="translate(-222.26 -240.44)"/><path class="cls-2" d="M375.42,290.23a49.53,49.53,0,0,1-3,5.09c-1.23,1.62-1.62,3.59-2.64,5.27-.81,1.34-1.75,2.6-2.77,4.08,2.24.68,2.78.54,3.65-.95q2.85-4.89,5.64-9.82c.57-1,1.13-2,1.69-3v-5.1Z" transform="translate(-222.26 -240.44)"/><path class="cls-2" d="M391,263.15c-1.43,2.54-2.92,5.06-4.36,7.59-1,1.72-1.94,3.44-2.91,5.16,1-.15,2-.29,3.13-.43,1.75-3,3.51-5.89,5.24-8.85q7.62-13,15.17-26.13l-3.33,0c-1.51,2.52-3,5-4.49,7.58C396.59,253.1,393.85,258.15,391,263.15Z" transform="translate(-222.26 -240.44)"/><path class="cls-2" d="M418.73,274c.54-.95,1.07-1.9,1.6-2.85a152.5,152.5,0,0,1,5.81-15.65,12.74,12.74,0,0,1-1,1.57c-.8,1-1,2.26-1.61,3.34-1.14,2.07-2.25,4.15-3.42,6.21l-4.19,7.36h.59Z" transform="translate(-222.26 -240.44)"/><path class="cls-2" d="M415.27,246.18c-.19.14-.19.55-.27.84a11.36,11.36,0,0,1-.7,2.43c-1.59,2.8-3.29,5.54-4.91,8.33-2.45,4.2-4.82,8.43-7,12.76a5.35,5.35,0,0,1-1.32,1.93,2.2,2.2,0,0,0-1.17,1.74c0,.05,0,.09,0,.14l3.32-.16q2.25-3.9,4.48-7.8c4-7,7.85-14.11,11.79-21.15q1.32-2.36,2.67-4.71l-2.86-.05C418.09,242.48,417.28,244.75,415.27,246.18Z" transform="translate(-222.26 -240.44)"/><path class="cls-2" d="M418.87,259.81c-1.9,3.43-3.66,6.93-5.55,10.37-.7,1.28-1.44,2.54-2.18,3.8l2.38,0q5.87-10.5,11.76-21c.4-.72,1-1.27.69-2.34-.11-.34,1.2-1,1.58-1.67,1.51-2.67,3-5.35,4.48-8l-2.48-.13q-1.19,2.25-2.41,4.47C424.43,250.14,421.59,254.94,418.87,259.81Z" transform="translate(-222.26 -240.44)"/><path class="cls-2" d="M343.21,501.32a21.18,21.18,0,0,0,4.44.35c4,.1,8.07.09,12.1.23,5.91.2,11.81.57,17.72.75H378v-2.9c-4.22-.22-8.44-.37-12.66-.55l-19.93-.87a60.94,60.94,0,0,1-6.63-.29,15.44,15.44,0,0,0-4.28.19v1.17l1,1.93A15.25,15.25,0,0,1,343.21,501.32Z" transform="translate(-222.26 -240.44)"/><path class="cls-2" d="M498.66,506.55l0-.47-1.17-.18-.22.6Z" transform="translate(-222.26 -240.44)"/><path class="cls-2" d="M350.1,473.85c5,.21,10.11.33,15.17.56,2.92.13,5.83.47,8.74.61l4,.17V473l-5.86-.3c-4.51-.23-9-.42-13.52-.66s-8.69-.55-13-.77c-3.7-.2-7.39-.38-11.09-.54v2.4l1.61.09Q343.1,473.57,350.1,473.85Z" transform="translate(-222.26 -240.44)"/><path class="cls-2" d="M514.82,481.71c.17,0,.34-.17,1-.53l-6.62-.53-8.31-.66c0,.34,0,.67,0,1Z" transform="translate(-222.26 -240.44)"/><path class="cls-2" d="M362.46,495.37c-3.24-.16-6.48-.28-9.72-.38-2.12-.07-4.26-.05-6.39-.13-3-.11-6-.31-9-.42a1.93,1.93,0,0,0-2.24,1.09,19.25,19.25,0,0,0,2.75.51c5.44.17,10.88.24,16.32.44,3.32.12,6.62.5,9.94.63,4.61.17,9.22.26,13.83.4v-1.36Z" transform="translate(-222.26 -240.44)"/><path class="cls-2" d="M501.62,504.23c.46-.72.93-1.43,1.4-2.14-1.43-.08-2.85-.17-4.28-.24q-.28,1.08-.6,2.13Z" transform="translate(-222.26 -240.44)"/><path class="cls-2" d="M514.89,503.11l-1.86-.2c-.35.54-.7,1.07-1.06,1.6l3.59,0C516,503.44,515.54,503.18,514.89,503.11Z" transform="translate(-222.26 -240.44)"/><path class="cls-2" d="M349.46,493.32a4.29,4.29,0,0,0,1.4-.12c.71,0,1.42-.09,2.12-.06,7.49.33,15,.69,22.47,1l2.55.11V492.5l-43.5-2.16v2.07a32.73,32.73,0,0,0,4.91.52C342.76,493,346.13,492.28,349.46,493.32Z" transform="translate(-222.26 -240.44)"/><path class="cls-2" d="M501.43,499.91v-.57l-2.06-.12c-.05.23-.09.46-.15.68C500,499.93,500.69,499.91,501.43,499.91Z" transform="translate(-222.26 -240.44)"/><path class="cls-2" d="M502.29,500.15l1.94.12.37-.57C503.87,499.67,503,498.83,502.29,500.15Z" transform="translate(-222.26 -240.44)"/><path d="M426.82,418.92c1.06-9.66,1.44-19.41,1.84-29.16.07-1.61.14-3.23.2-4.85-2.65.24-5.38.41-8.18.47a198.77,198.77,0,0,1-.29,24.76c-.21,1.76-.42,3.47-.64,5.08-.15,1.12-.32,2.21-.49,3.3Q423.09,418.64,426.82,418.92Z" transform="translate(-222.26 -240.44)"/><path d="M365,456.78a67,67,0,0,0,83.89,64.86c.43-1.74.87-3.27,1-4.19,1.91-10.69,3.54-21.47,4.78-32.28l1.09,1.19q4.13,4.49,8.27,9a112.6,112.6,0,0,1-4.33,21.2c-.06.19-.14.43-.22.71s-.16.51-.25.76a67.24,67.24,0,0,0,23.85-17.89l-4.42-.21c-1.88-.08-3.77-.2-5.66-.25a73.1,73.1,0,0,0-.58-7.91c-1.56-12.3-3.38-24.47-2.39-36.85.1-.82.2-1.63.3-2.39a67.26,67.26,0,0,1,7.33-22.6c1.27-1.91,2.59-3.78,3.75-5.76l.56,0c2.92.15,5.84.27,8.76.41-.18-.34-.38-.67-.58-1l-6.91-.36-1.27-.07.54-1,3,.18,4,.16c-.18-.3-.36-.61-.55-.91l-6-.31c.12-.27.24-.53.35-.8s.28-.72.4-1.09l1,0c1,0,1.95,0,2.92.08l-.59-.84-1.87-.08-1.21-.07c.14-.57.26-1.15.35-1.73l1.46.09c-.28-.37-.57-.73-.85-1.09l-.46,0c0-.16,0-.33,0-.49a66.56,66.56,0,0,0-5-5.63l-1.26-.05L464.42,409l-8-.28c.12-.28.22-.57.34-.85l.58,0c2.24.07,4.48.12,6.73.18l11.94.35,2.38.06a66.78,66.78,0,0,0-37-18h0q-4.92,4.28-9.88,8.51c-1.28,1.1-2.59,2.17-3.91,3.22-.51.41-1.31.62-1.59,1.13a4.48,4.48,0,0,1-1.23,1.39c-.51.38-1.09.67-1.69,1a23,23,0,0,1-6.1,5.42c-.35-.55-.66-1-1-1.58,1.45-1.2,2.84-2.33,4.21-3.49.71-.61,1.33-1.33,2.07-1.92,3.52-2.8,6.79-5.89,10.18-8.84l6-5.23-1.27-.1c-2.89,2.51-5.79,5-8.67,7.53-1.16,1-2.25,2.11-3.37,3.17a1.94,1.94,0,0,1-.23.26c-2.94,1.9-5.3,4.49-8,6.67-.45.36-.92.69-1.45,1.08-.37-.56-.66-1-1-1.61a9.7,9.7,0,0,1,.94-1.11c1.43-1.28,2.88-2.55,4.35-3.79.51-.43,1.1-.77,1.62-1.18s.84-.76,1.26-1.14l5.77-5.09c1.87-1.65,3.73-3.31,5.61-5l-1.24,0-2,1.72-4.9,4.27-3.56,3.11c-2.23,1.94-4.45,3.89-6.7,5.81a8.69,8.69,0,0,1-.76.55c1.51-1.92,3.62-4.62,5.16-7.05l3.06-2.68c1.59-1.37,3.19-2.7,4.77-4.08.6-.52,1.19-1.06,1.78-1.6l-1.47.06-3.28,2.88-3.53,3.05a4.14,4.14,0,0,0,.59-2.61.88.88,0,0,0-.52-.83l2.48-2.1c-.6.08-1.2.14-1.79.23l-2.12,1.86c-.19,0-.4.1-.63.17-1.5.47-3.11,2.18-4.66,4.36l-3.1,2.56-1.23,1-1.13-1.75c.29-.92,1.78-.82,1.57-1.88a6.1,6.1,0,0,0,1.38-.64c1.9-1.62,3.78-3.27,5.66-4.9-.65.14-1.29.29-1.94.45L414.38,393c-1.17,1-2.34,2-3.53,3-.75.62-1.53,1.21-2.38,1.87-.35-.6-.64-1.09-.89-1.53l2.85-2.43,1.11-.91c-.87.28-1.74.56-2.59.88l-1.8,1.47-.45-.59a67.56,67.56,0,0,0-9.89,5,37.25,37.25,0,0,1-3.46,6.55,47.94,47.94,0,0,1-3.77,4.68,1,1,0,0,1-.83.36c-.95-.19-1.29.5-1.37,1.11a2.45,2.45,0,0,1-1.26,1.74c-.79.53-1.6,1-2.4,1.51a2.71,2.71,0,0,0-.46.36c-.93,1-1.07,1-2.16.59-.05,0-.15.09-.16.15-.21,1.11-.58,1.45-1.75,1.62-.23,0-.57,0-.64.17-.53,1-1.5.95-2.37,1.12-.34.52-.67,1-1,1.56l.75-.21a3.25,3.25,0,0,1,.39.81c.25,1.67.44,3.35.69,5,.36,2.26.79,4.51,1.12,6.78.29,2,.45,4,.73,6,.23,1.58.48,3.16.74,4.74-.43,1.49-.88,3-1.34,4.49-.19-1.28-.37-2.55-.56-3.83-.58-4.17-1.14-8.35-1.72-12.52-.15-1.1-.38-2.18-.53-3.28-.24-1.82-.45-3.65-.67-5.48-.07-.52-.12-1-.18-1.6-.34.57-.67,1.15-1,1.72.44,3.16.86,6.32,1.32,9.48.34,2.34.75,4.67,1.09,7,.15,1,.16,2.13.31,3.18.32,2.27.71,4.52,1,6.79.05.33.08.66.12,1-.35,1.06-.72,2.13-1.1,3.2-.25-1.92-.5-3.84-.77-5.76-.43-3-.92-6.08-1.35-9.12-.34-2.47-.64-4.95-1-7.43a15.07,15.07,0,0,0,.27-5.7l-1,.3c0-.27-.07-.54-.11-.81A66.65,66.65,0,0,0,365,456.78Zm53.28-43.55h2.38a1.71,1.71,0,0,1-.1.4,1.42,1.42,0,0,1-.21.29l.26.1-.51,1C419,414.85,418.8,414.58,418.27,413.23Zm-9.7,36.56c-2.4,1.53-4.94.42-6.77-1.65a16.89,16.89,0,0,1-2.32-6.55c-.42-4.31.63-9.08,2.42-13.81l.66.73,2.39,2.62c1.53,1.65,3.08,3.28,4.61,4.93l2.26,2.45c-.43,2.29-1,7-2.22,9.95A3.26,3.26,0,0,1,408.57,449.79Zm69-28.84-8.73-.42-3.28-.13c.34-.62.69-1.24,1.06-1.86a8.94,8.94,0,0,0-6.8,1.63l-1.5-.07c-2.69-.09-5.38-.16-8.08-.27.43-.69.85-1.39,1.27-2.08l1.73.06c2.69.12,5.38.32,8.06.45s5.51.2,8.27.33c2.92.14,5.83.35,8.75.47C478.11,419.7,477.86,420.32,477.59,421Zm-30.31.25c-3.4-.18-6.79-.32-10.18-.54l-1.53-.12.15-.27.19-.32,3.67.22c1.42.1,2.84.23,4.25.32s2.66.12,4,.17c-.08.19-.17.37-.25.55Zm-21.62-7.6,4.15.28c2.09.12,4.18.16,6.27.3l1.2.08c-.38.59-.78,1.18-1.17,1.76l-1.79-.1-9.85-.6ZM448,419.75c-3.6-.18-7.2-.47-10.8-.68l-.71,0,1.15-2,.53,0c1.53.09,3.06.29,4.59.41.67.05,1.34,0,2,0l4.49.14c-.33.7-.66,1.39-1,2.1Zm1.4-2.9c-3.28-.16-6.55-.42-9.82-.63l-1.39-.08c.35-.58.69-1.16,1-1.74l4.13.32c1,.07,2,.07,2.94.13,1.39.09,2.78.23,4.17.34l-.81,1.67ZM451,414q-5.48-.24-11-.52l-.31,0,.87-1.51,1.64.1c2.6.17,5.19.48,7.8.62l1.58.07C451.39,413.19,451.18,413.62,451,414Zm-1.24,6.69c2.53.07,5.06.12,7.59.2.52,0,1,.07,1.54.13a7.12,7.12,0,0,0-.62.72l-8.86-.47ZM476.68,418c-3.95-.18-7.9-.28-11.84-.45-2.25-.1-4.5-.31-6.75-.41-2-.09-4-.14-6.08-.21l1-1.63c.48,0,1,0,1.44,0,3.93-.12,7.81.36,11.71.52,2.77.11,5.54.17,8.3.29,1.58.07,3.16.16,4.74.26-.16.58-.33,1.15-.51,1.72Zm-24.56-6.26-11-.64.21-.39,6.43.47a4.17,4.17,0,0,0,.7.08,27.13,27.13,0,0,1,3.93,0C452.27,411.45,452.2,411.61,452.12,411.76ZM439.34,411l-9.82-.58v-.28c.41,0,.82,0,1.22,0,1.33.08,2.66.18,4,.24.67,0,1.35,0,2,0l2.83.21Zm-9.55.34,9,.53-.45.72c-.06.09-.11.18-.17.26l-.07.12-.27.4c-3.84-.22-7.69-.48-11.54-.73.33-.47.66-1,1-1.46Zm-1.85-1.1c.06-.09.12-.19.19-.28l1,.06C428.75,410.69,428.3,410.27,427.94,410.25Zm-4.12,6c2.43.17,4.86.37,7.3.51,1.45.09,2.9.15,4.35.2l-1.32,1.94-7-.37c-1.56-.09-3.13-.17-4.7-.24Zm-1,3c3.46.17,6.92.34,10.38.53l.35,0-.38.57-7.56-.59-3.31-.27C422.66,419.33,422.74,419.25,422.83,419.25Zm.17,1.36c1,.1,2,.21,3.06.27,2.17.15,4.34.28,6.52.41a65,65,0,0,0-4.18,7.2c-.16.33-.3.65-.45,1-.82-1.22-1.66-2.42-2.39-3.7-.93-1.63-1.85-3.28-2.77-4.92Zm12.08.82c3.92.21,7.84.32,11.74.7l.31,0c-1.5,3.28-2.93,6.52-4.12,9.33-1.82,4.24-3.11,7.5-3.31,8.37a44.07,44.07,0,0,0-1.13,6.86c-2.08-3.37-4.18-6.74-6.24-10.12-.59-1-1.05-2-1.62-3a10.53,10.53,0,0,0-.76-.89A102.64,102.64,0,0,1,435.08,421.43ZM448.23,462l-.19,0c-.62-1-1.24-2.09-1.88-3.12-1.3-2.1-2.69-4.14-4-6.23l-.57-1a39,39,0,0,1-.05-5.08,65.91,65.91,0,0,1,2.54-14.4,40.5,40.5,0,0,1,2.28-5.46l.27-.55.39-.73c.57-1.08,1.18-2.14,1.79-3.19,2.94.2,5.88.25,8.82.39-5.76,9.07-2.44,30.2-5.82,37.14C451,461.4,449.9,462.25,448.23,462Zm16.85-40.72,4,.11c1.49.05,3,.16,4.46.23.83,0,1.65,0,2.47.07l1.25.07-.49,1.07-.93-.05c-3.2-.19-6.39-.41-9.59-.6l-1.55-.09Zm14.32-5.88c-1.95-.06-3.91-.11-5.87-.21-4-.19-8-.44-11.94-.66-1.81-.1-3.63-.2-5.44-.28l-2.52-.12c.24-.42.47-.84.7-1.27,2.12.08,4.24.15,6.36.26s4.49.38,6.74.51c1.5.08,3,0,4.51.08,2.58.13,5.16.29,7.74.44C479.6,414.6,479.5,415,479.4,415.43Zm-24.56-3.52c.08-.14.15-.28.22-.42.74.05,1.49.09,2.23.09,2.77,0,5.53.2,8.3.29,2.36.08,4.73.13,7.1.23s4.87.24,7.3.35c0,.27-.09.54-.14.81Q467.34,412.62,454.84,411.91Zm-2-1.48c-1.84-.07-3.68-.13-5.53-.23-.66,0-1.33-.17-2-.22l-3.48-.19.55-1c.78,0,1.55,0,2.32.06,1.49.1,3,.35,4.47.48.82.08,1.65.05,2.48.08l1.71.06C453.16,409.77,453,410.1,452.8,410.43Zm-12.68-.74-4.73-.27-6.66-.36.7-1.07c1.14.08,2.28.17,3.42.23,1.69.11,3.39.18,5.08.29.71,0,1.41.19,2.12.21h.6Zm-45.65,23.88c-.21-1.29-.42-2.58-.61-3.88-.41-2.85-.78-5.7-1.18-8.55a18.46,18.46,0,0,1-.26-3.38c.63.6,1.28,1.17,1.88,1.8,1.68,1.77,3.34,3.56,5,5.35l.69.77C398.22,429.16,396.33,432.18,394.47,433.57Zm24.69,56.57c-8,5.79-8.53-11.24-7.59-26V464c0-.17,0-.35,0-.53.56-8.36,1.58-15.86,1.94-17.81.27-1.42.57-2.88.89-4.35l1.84,2c2.19,2.4,4.34,4.83,6.53,7.23,0,.17,0,.34,0,.52q-.11,1.23-.18,2.46c-.28,4.45,1.19,15.25.79,24.07-.24,5.38-1.18,10-3.61,12.07C419.56,489.84,419.36,490,419.16,490.14Zm5.63-37.44c2.4,2.6,4.83,5.19,7.23,7.8,1.85,2,3.66,4.1,5.5,6.14.23.25.47.49.71.73a6.69,6.69,0,0,1-3.34,2.45c-3,.88-6.36-1-8.35-4.36C424.76,462.06,424.35,457.58,424.79,452.7Zm38.38,34c-1.47-2.41-3-4.8-4.47-7.22-1-1.63-1.94-3.29-2.91-4.94,0-.15,0-.3,0-.45.08-.88.14-1.76.21-2.64.1-1.16.2-2.32.28-3.48.4-5.58.6-10.73.94-15.64.7-10.16,2-19.32,6.89-29.22,2,.16,4.08.32,6.12.46,1.3.09,2.61.07,3.91.14l2.1.12-.36.78c-2.57,4.77-5.46,9-7,14.7-2.32,8.47-2.63,17.18-3,25.9-.33,7.86-.57,16-1.25,24.06C464.17,488.42,463.68,487.56,463.17,486.71ZM464.53,410c3.36.17,6.72.3,10.08.47l5.61.29-.09.77c-5-.22-10-.41-15-.61l-9.63-.36v0l.24-.51.21-.47,3.8.14C461.38,409.75,463,409.9,464.53,410Zm-10.25-2.27-.47.85h0c-2.92-.15-5.82-.44-8.73-.64-.74-.05-1.49-.07-2.23-.09l.24-.48,2.08.09c2.67.1,5.35.14,8,.23Zm-12.87-.43c-.08.16-.16.33-.25.49-3.16-.18-6.31-.39-9.47-.59-.27,0-.53-.08-.8-.12l0-.23c1.66.06,3.33.12,5,.2Zm-19,.58h1.79c-.18.26-.35.53-.53.8l-.93-.1C422.47,408.51,422.26,408.39,422.46,407.86Zm-1.09,1.08.42.73c-.35.22-.64.4-.91.6-.05,0,0,.14-.05.29l1.61.17c-.31.53-.62,1.06-.92,1.6l-2.92-.2c-.22,0-.43-.1-.92-.21Zm-8.52-9.38c-.54.89-1.06,1.8-1.57,2.7-.18-.28-.37-.55-.59-.86C411.42,400.79,412.13,400.17,412.85,399.56Zm-23.4,25.77c.32,2.07.57,4.14.9,6.21.1.67.22,1.34.33,2a6.62,6.62,0,0,1-1.26-1.31c-.1-.18-.19-.36-.28-.54-.19-1.19-.39-2.37-.58-3.56-.1-.6-.14-1.21-.22-1.82A19.75,19.75,0,0,1,389,423C389.16,423.77,389.33,424.54,389.45,425.33Zm-2-10.76c.08.1.2.19.21.29.16.95.31,1.9.46,2.85-.27.63-.53,1.26-.79,1.9l-.33-2.23c-.1-.7-.12-1.4-.17-2.11C386.81,414.84,387.05,414.64,387.46,414.57Zm-2.17,1.65c.66.53.61,1.35.73,2,.21,1.16.33,2.34.47,3.51-.3.81-.6,1.62-.88,2.42-.1-.65-.2-1.3-.29-1.95-.24-1.56-.46-3.12-.68-4.68C384.54,416.81,384.55,416.81,385.29,416.22Zm-2.77,1.68c.15-.06.28-.13.43-.18a1.87,1.87,0,0,1,.32-.08c.07.07.16.12.17.18.41,2.52.79,5.05,1.21,7.57l.18,1.06c-.33,1-.64,2-.95,3-.35-2-.7-4.08-1-6.12A17.92,17.92,0,0,1,382.52,417.9Zm-1.5.94c.18,1.09.33,2.05.49,3,.55,3.31,1.13,6.62,1.67,9.94-.39,1.3-.76,2.6-1.13,3.91-.18-1.31-.36-2.62-.56-3.92-.58-3.91-1.2-7.81-1.8-11.71a3.71,3.71,0,0,1,0-.53Zm-1.42,18.25c-.32-2.11-.56-4.23-.84-6.34-.35-2.66-.72-5.32-1.05-8-.1-.73-.11-1.47-.16-2.32l1-.35c.18,1,.38,1.8.5,2.64.47,3.21.9,6.42,1.37,9.62.28,1.83.63,3.65.91,5.49,0,.11,0,.22,0,.33-.33,1.22-.67,2.43-1,3.65C380.08,440.25,379.83,438.67,379.6,437.09Z" transform="translate(-222.26 -240.44)"/><path class="cls-2" d="M410.7,396.85c.21,1.06-1.28,1-1.57,1.88l1.13,1.75,1.23-1,3.1-2.56c1.55-2.18,3.16-3.89,4.66-4.36.23-.07.44-.13.63-.17l2.12-1.86c-1.43.22-2.85.49-4.26.79-1.88,1.63-3.76,3.28-5.66,4.9A6.1,6.1,0,0,1,410.7,396.85Z" transform="translate(-222.26 -240.44)"/><path class="cls-2" d="M422.17,404.16c-.74.59-1.36,1.31-2.07,1.92-1.37,1.16-2.76,2.29-4.21,3.49.35.56.66,1,1,1.58a23,23,0,0,0,6.1-5.42c.6-.36,1.18-.65,1.69-1a4.48,4.48,0,0,0,1.23-1.39c.28-.51,1.08-.72,1.59-1.13,1.32-1.05,2.63-2.12,3.91-3.22q4.95-4.24,9.88-8.51h0c-1-.14-2-.26-2.95-.35l-6,5.23C429,398.27,425.69,401.36,422.17,404.16Z" transform="translate(-222.26 -240.44)"/><path class="cls-2" d="M407.58,396.31c.25.44.54.93.89,1.53.85-.66,1.63-1.25,2.38-1.87,1.19-1,2.36-2,3.53-3l1.42-1.23c-1.44.36-2.86.76-4.26,1.21l-1.11.91Z" transform="translate(-222.26 -240.44)"/><path class="cls-2" d="M421.83,393.22a4.14,4.14,0,0,1-.59,2.61l3.53-3.05,3.28-2.88c-1.44.08-2.86.22-4.26.39l-2.48,2.1A.88.88,0,0,1,421.83,393.22Z" transform="translate(-222.26 -240.44)"/><path class="cls-2" d="M412.85,399.56c-.72.61-1.43,1.23-2.16,1.84.22.31.41.58.59.86C411.79,401.36,412.31,400.45,412.85,399.56Z" transform="translate(-222.26 -240.44)"/><path class="cls-2" d="M423,395.52l-3.06,2.68c-1.54,2.43-3.65,5.13-5.16,7.05a8.69,8.69,0,0,0,.76-.55c2.25-1.92,4.47-3.87,6.7-5.81l3.56-3.11,4.9-4.27,2-1.72H432c-.83,0-1.66,0-2.48.06-.59.54-1.18,1.08-1.78,1.6C426.16,392.82,424.56,394.15,423,395.52Z" transform="translate(-222.26 -240.44)"/><path class="cls-2" d="M409,393.85c-.76.27-1.5.58-2.25.88l.45.59Z" transform="translate(-222.26 -240.44)"/><path class="cls-2" d="M422.51,399.87c-.42.38-.82.79-1.26,1.14s-1.11.75-1.62,1.18c-1.47,1.24-2.92,2.51-4.35,3.79a9.7,9.7,0,0,0-.94,1.11c.38.59.67,1.05,1,1.61.53-.39,1-.72,1.45-1.08,2.7-2.18,5.06-4.77,8-6.67a1.94,1.94,0,0,0,.23-.26c1.12-1.06,2.21-2.15,3.37-3.17,2.88-2.52,5.78-5,8.67-7.53-1.06-.08-2.13-.14-3.21-.17-1.88,1.65-3.74,3.31-5.61,5Z" transform="translate(-222.26 -240.44)"/><path class="cls-2" d="M375.45,429.28c.15,1.1.38,2.18.53,3.28.58,4.17,1.14,8.35,1.72,12.52.19,1.28.37,2.55.56,3.83.46-1.5.91-3,1.34-4.49-.26-1.58-.51-3.16-.74-4.74-.28-2-.44-4-.73-6-.33-2.27-.76-4.52-1.12-6.78-.25-1.67-.44-3.35-.69-5a3.25,3.25,0,0,0-.39-.81l-.75.21-.58.92c.06.56.11,1.08.18,1.6C375,425.63,375.21,427.46,375.45,429.28Z" transform="translate(-222.26 -240.44)"/><path class="cls-2" d="M381.49,431.78c.2,1.3.38,2.61.56,3.92.37-1.31.74-2.61,1.13-3.91-.54-3.32-1.12-6.63-1.67-9.94-.16-1-.31-1.92-.49-3l-1.37.7a3.71,3.71,0,0,0,0,.53C380.29,424,380.91,427.87,381.49,431.78Z" transform="translate(-222.26 -240.44)"/><path class="cls-2" d="M373.57,426.57a15.07,15.07,0,0,1-.27,5.7c.32,2.48.62,5,1,7.43.43,3,.92,6.08,1.35,9.12.27,1.92.52,3.84.77,5.76.38-1.07.75-2.14,1.1-3.2,0-.34-.07-.67-.12-1-.32-2.27-.71-4.52-1-6.79-.15-1-.16-2.13-.31-3.18-.34-2.34-.75-4.67-1.09-7-.46-3.16-.88-6.32-1.32-9.48-.4.71-.78,1.42-1.15,2.14,0,.27.07.54.11.81Z" transform="translate(-222.26 -240.44)"/><path class="cls-2" d="M381.31,437.85c-.28-1.84-.63-3.66-.91-5.49-.47-3.2-.9-6.41-1.37-9.62-.12-.84-.32-1.68-.5-2.64l-1,.35c.05.85.06,1.59.16,2.32.33,2.66.7,5.32,1.05,8,.28,2.11.52,4.23.84,6.34.23,1.58.48,3.16.74,4.74.34-1.22.68-2.43,1-3.65C381.34,438.07,381.32,438,381.31,437.85Z" transform="translate(-222.26 -240.44)"/><path class="cls-2" d="M388.56,428.15c.19,1.19.39,2.37.58,3.56.09.18.18.36.28.54a6.62,6.62,0,0,0,1.26,1.31c-.11-.68-.23-1.35-.33-2-.33-2.07-.58-4.14-.9-6.21-.12-.79-.29-1.56-.44-2.34a19.75,19.75,0,0,0-.67,3.34C388.42,426.94,388.46,427.55,388.56,428.15Z" transform="translate(-222.26 -240.44)"/><path class="cls-2" d="M387.34,419.61c.26-.64.52-1.27.79-1.9-.15-.95-.3-1.9-.46-2.85,0-.1-.13-.19-.21-.29-.41.07-.65.27-.62.7.05.71.07,1.41.17,2.11Z" transform="translate(-222.26 -240.44)"/><path class="cls-2" d="M383.88,429.45c.31-1,.62-2,.95-3l-.18-1.06c-.42-2.52-.8-5.05-1.21-7.57,0-.06-.1-.11-.17-.18a1.87,1.87,0,0,0-.32.08c-.15,0-.28.12-.43.18a17.92,17.92,0,0,0,.35,5.43C383.18,425.37,383.53,427.41,383.88,429.45Z" transform="translate(-222.26 -240.44)"/><path class="cls-2" d="M385.32,422.25c.09.65.19,1.3.29,1.95.28-.8.58-1.61.88-2.42-.14-1.17-.26-2.35-.47-3.51-.12-.7-.07-1.52-.73-2-.74.59-.75.59-.65,1.35C384.86,419.13,385.08,420.69,385.32,422.25Z" transform="translate(-222.26 -240.44)"/><path class="cls-2" d="M428,429.47c.15-.33.29-.65.45-1a65,65,0,0,1,4.18-7.2c-2.18-.13-4.35-.26-6.52-.41-1-.06-2-.17-3.06-.27l-.21.24c.92,1.64,1.84,3.29,2.77,4.92C426.29,427.05,427.13,428.25,428,429.47Z" transform="translate(-222.26 -240.44)"/><path class="cls-2" d="M448.8,422.27c-.61,1.05-1.22,2.11-1.79,3.19l-.39.73-.27.55a40.5,40.5,0,0,0-2.28,5.46,65.91,65.91,0,0,0-2.54,14.4,39,39,0,0,0,.05,5.08l.57,1c1.32,2.09,2.71,4.13,4,6.23.64,1,1.26,2.08,1.88,3.12l.19,0c1.67.22,2.79-.63,3.57-2.23,3.38-6.94.06-28.07,5.82-37.14C454.68,422.52,451.74,422.47,448.8,422.27Z" transform="translate(-222.26 -240.44)"/><path class="cls-2" d="M468.9,439.32c1.56-5.7,4.45-9.93,7-14.7l.36-.78-2.1-.12c-1.3-.07-2.61-.05-3.91-.14-2-.14-4.08-.3-6.12-.46-4.89,9.9-6.19,19.06-6.89,29.22-.34,4.91-.54,10.06-.94,15.64-.08,1.16-.18,2.32-.28,3.48-.07.88-.13,1.76-.21,2.64,0,.15,0,.3,0,.45,1,1.65,1.91,3.31,2.91,4.94,1.47,2.42,3,4.81,4.47,7.22.51.85,1,1.71,1.49,2.57.68-8.07.92-16.2,1.25-24.06C466.27,456.5,466.58,447.79,468.9,439.32Z" transform="translate(-222.26 -240.44)"/><path class="cls-2" d="M432.33,436.59c2.06,3.38,4.16,6.75,6.24,10.12a44.07,44.07,0,0,1,1.13-6.86c.2-.87,1.49-4.13,3.31-8.37,1.19-2.81,2.62-6.05,4.12-9.33l-.31,0c-3.9-.38-7.82-.49-11.74-.7A102.64,102.64,0,0,0,430,432.7a10.53,10.53,0,0,1,.76.89C431.28,434.57,431.74,435.62,432.33,436.59Z" transform="translate(-222.26 -240.44)"/><path class="cls-2" d="M481.44,424.13c-1.16,2-2.48,3.85-3.75,5.76a67.26,67.26,0,0,0-7.33,22.6c-.1.76-.2,1.57-.3,2.39-1,12.38.83,24.55,2.39,36.85a73.1,73.1,0,0,1,.58,7.91c1.89.05,3.78.17,5.66.25l4.42.21a67,67,0,0,0,7.65-75.53c-2.92-.14-5.84-.26-8.76-.41Z" transform="translate(-222.26 -240.44)"/><path class="cls-2" d="M459.73,516.52a112.6,112.6,0,0,0,4.33-21.2q-4.14-4.49-8.27-9l-1.09-1.19c-1.24,10.81-2.87,21.59-4.78,32.28-.17.92-.61,2.45-1,4.19A66.8,66.8,0,0,0,459.26,518c.09-.25.17-.51.25-.76S459.67,516.71,459.73,516.52Z" transform="translate(-222.26 -240.44)"/><path class="cls-2" d="M423.38,477.6c.4-8.82-1.07-19.62-.79-24.07q.07-1.23.18-2.46c0-.18,0-.35,0-.52-2.19-2.4-4.34-4.83-6.53-7.23l-1.84-2c-.32,1.47-.62,2.93-.89,4.35-.36,1.95-1.38,9.45-1.94,17.81,0,.18,0,.36,0,.53v.11c-.94,14.76-.36,31.79,7.59,26,.2-.14.4-.3.61-.47C422.2,487.63,423.14,483,423.38,477.6Z" transform="translate(-222.26 -240.44)"/><path class="cls-2" d="M434.89,469.82a6.69,6.69,0,0,0,3.34-2.45c-.24-.24-.48-.48-.71-.73-1.84-2-3.65-4.11-5.5-6.14-2.4-2.61-4.83-5.2-7.23-7.8-.44,4.88,0,9.36,1.75,12.76C428.53,468.83,431.87,470.7,434.89,469.82Z" transform="translate(-222.26 -240.44)"/><path class="cls-2" d="M409.56,436.06c-1.53-1.65-3.08-3.28-4.61-4.93l-2.39-2.62-.66-.73c-1.79,4.73-2.84,9.5-2.42,13.81a16.89,16.89,0,0,0,2.32,6.55c1.83,2.07,4.37,3.18,6.77,1.65a3.26,3.26,0,0,0,1-1.33c1.26-3,1.79-7.66,2.22-9.95Z" transform="translate(-222.26 -240.44)"/><path class="cls-2" d="M394.3,419.56c-.6-.63-1.25-1.2-1.88-1.8a18.46,18.46,0,0,0,.26,3.38c.4,2.85.77,5.7,1.18,8.55.19,1.3.4,2.59.61,3.88,1.86-1.39,3.75-4.41,5.52-7.89l-.69-.77C397.64,423.12,396,421.33,394.3,419.56Z" transform="translate(-222.26 -240.44)"/><path class="cls-2" d="M378.55,418.6c.07-.13.41-.13.64-.17,1.17-.17,1.54-.51,1.75-1.62,0-.06.11-.1.16-.15,1.09.44,1.23.4,2.16-.59a2.71,2.71,0,0,1,.46-.36c.8-.5,1.61-1,2.4-1.51a2.45,2.45,0,0,0,1.26-1.74c.08-.61.42-1.3,1.37-1.11a1,1,0,0,0,.83-.36,47.94,47.94,0,0,0,3.77-4.68,37.25,37.25,0,0,0,3.46-6.55,67.28,67.28,0,0,0-20.63,20C377.05,419.55,378,419.58,378.55,418.6Z" transform="translate(-222.26 -240.44)"/><path class="cls-2" d="M434.15,418.91l1.32-1.94c-1.45-.05-2.9-.11-4.35-.2-2.44-.14-4.87-.34-7.3-.51l-1.42,2c1.57.07,3.14.15,4.7.24Z" transform="translate(-222.26 -240.44)"/><path class="cls-2" d="M461.32,418.26c-2.68-.13-5.37-.33-8.06-.45l-1.73-.06c-.42.69-.84,1.39-1.27,2.08,2.7.11,5.39.18,8.08.27l1.5.07a8.94,8.94,0,0,1,6.8-1.63c-.37.62-.72,1.24-1.06,1.86l3.28.13,8.73.42c.27-.63.52-1.25.75-1.89-2.92-.12-5.83-.33-8.75-.47C466.83,418.46,464.08,418.39,461.32,418.26Z" transform="translate(-222.26 -240.44)"/><path class="cls-2" d="M444.73,417.52c-.68,0-1.35,0-2,0-1.53-.12-3.06-.32-4.59-.41l-.53,0-1.15,2,.71,0c3.6.21,7.2.5,10.8.68h.28c.33-.71.66-1.4,1-2.1Z" transform="translate(-222.26 -240.44)"/><path class="cls-2" d="M483.71,419.34c-.12.37-.25.74-.4,1.09s-.23.53-.35.8l6,.31q-.66-1.07-1.35-2.1c-1-.05-1.95-.09-2.92-.08Z" transform="translate(-222.26 -240.44)"/><path class="cls-2" d="M420.34,413.92a1.42,1.42,0,0,0,.21-.29,1.71,1.71,0,0,0,.1-.4h-2.38c.53,1.35.72,1.62,1.82,1.78l.51-1Z" transform="translate(-222.26 -240.44)"/><path class="cls-2" d="M446.24,414.85c-1-.06-2-.06-2.94-.13l-4.13-.32c-.34.58-.68,1.16-1,1.74l1.39.08c3.27.21,6.54.47,9.82.63h.25l.81-1.67C449,415.08,447.63,414.94,446.24,414.85Z" transform="translate(-222.26 -240.44)"/><path class="cls-2" d="M484,418.45l1.21.07,1.87.08c-.42-.6-.84-1.2-1.27-1.79l-1.46-.09C484.23,417.3,484.11,417.88,484,418.45Z" transform="translate(-222.26 -240.44)"/><path class="cls-2" d="M436.11,416c.39-.58.79-1.17,1.17-1.76l-1.2-.08c-2.09-.14-4.18-.18-6.27-.3l-4.15-.28-1.19,1.72,9.85.6Z" transform="translate(-222.26 -240.44)"/><path class="cls-2" d="M474.42,416.15c-2.76-.12-5.53-.18-8.3-.29-3.9-.16-7.78-.64-11.71-.52-.48,0-1,0-1.44,0L452,417c2,.07,4.05.12,6.08.21,2.25.1,4.5.31,6.75.41,3.94.17,7.89.27,11.84.45l2,.11c.18-.57.35-1.14.51-1.72C477.58,416.31,476,416.22,474.42,416.15Z" transform="translate(-222.26 -240.44)"/><path class="cls-2" d="M421.52,412.33c.3-.54.61-1.07.92-1.6l-1.61-.17c0-.15,0-.26.05-.29.27-.2.56-.38.91-.6l-.42-.73-3.69,3c.49.11.7.19.92.21Z" transform="translate(-222.26 -240.44)"/><path class="cls-2" d="M442.22,412.09l-1.64-.1-.87,1.51.31,0q5.48.28,11,.52c.21-.42.42-.85.63-1.26l-1.58-.07C447.41,412.57,444.82,412.26,442.22,412.09Z" transform="translate(-222.26 -240.44)"/><path class="cls-2" d="M426.31,412.65c3.85.25,7.7.51,11.54.73l.27-.4.07-.12c.06-.08.11-.17.17-.26l.45-.72-9-.53-2.49-.16C427,411.69,426.64,412.18,426.31,412.65Z" transform="translate(-222.26 -240.44)"/><path class="cls-2" d="M484.93,415.72l-.41-.52c0,.16,0,.33,0,.49Z" transform="translate(-222.26 -240.44)"/><path class="cls-2" d="M467.43,413.66c-2.25-.13-4.49-.39-6.74-.51s-4.24-.18-6.36-.26c-.23.43-.46.85-.7,1.27l2.52.12c1.81.08,3.63.18,5.44.28,4,.22,8,.47,11.94.66,2,.1,3.92.15,5.87.21.1-.41.2-.83.28-1.25-2.58-.15-5.16-.31-7.74-.44C470.44,413.66,468.93,413.74,467.43,413.66Z" transform="translate(-222.26 -240.44)"/><path class="cls-2" d="M430.89,407.06c.27,0,.53.1.8.12,3.16.2,6.31.41,9.47.59.09-.16.17-.33.25-.49l-5.5-.25c-1.67-.08-3.34-.14-5-.2Z" transform="translate(-222.26 -240.44)"/><path class="cls-2" d="M464,408c-2.25-.06-4.49-.11-6.73-.18l-.58,0c-.12.28-.22.57-.34.85l8,.28,13.86.57,1.26.05c-.38-.39-.78-.76-1.18-1.14l-2.38-.06Z" transform="translate(-222.26 -240.44)"/><path class="cls-2" d="M443.06,407.35l-.24.48c.74,0,1.49,0,2.23.09,2.91.2,5.81.49,8.73.64h0l.47-.85-1.12,0c-2.67-.09-5.35-.13-8-.23Z" transform="translate(-222.26 -240.44)"/><path class="cls-2" d="M475.8,422.81l.93.05.49-1.07-1.25-.07c-.82-.05-1.64,0-2.47-.07-1.48-.07-3-.18-4.46-.23l-4-.11-.42.81,1.55.09C469.41,422.4,472.6,422.62,475.8,422.81Z" transform="translate(-222.26 -240.44)"/><path class="cls-2" d="M443.83,420.49c-1.41-.09-2.83-.22-4.25-.32l-3.67-.22-.19.32-.15.27,1.53.12c3.39.22,6.78.36,10.18.54h.28c.08-.18.17-.36.25-.55C446.49,420.61,445.16,420.56,443.83,420.49Z" transform="translate(-222.26 -240.44)"/><path class="cls-2" d="M433.18,420.37l.38-.57-.35,0c-3.46-.19-6.92-.36-10.38-.53-.09,0-.17.08-.52.26l3.31.27Z" transform="translate(-222.26 -240.44)"/><path class="cls-2" d="M458.86,421.06c-.51-.06-1-.12-1.54-.13-2.53-.08-5.06-.13-7.59-.2l-.35.58,8.86.47A7.12,7.12,0,0,1,458.86,421.06Z" transform="translate(-222.26 -240.44)"/><path class="cls-2" d="M482.54,422.11l-.54,1,1.27.07,6.91.36c-.21-.38-.42-.75-.64-1.12l-4-.16Z" transform="translate(-222.26 -240.44)"/><path class="cls-2" d="M437.93,408.51c-1.69-.11-3.39-.18-5.08-.29-1.14-.06-2.28-.15-3.42-.23l-.7,1.07,6.66.36,4.73.27.53-1h-.6C439.34,408.7,438.64,408.55,437.93,408.51Z" transform="translate(-222.26 -240.44)"/><path class="cls-2" d="M449.14,409.3c-1.49-.13-3-.38-4.47-.48-.77-.05-1.54-.06-2.32-.06l-.55,1,3.48.19c.66,0,1.33.19,2,.22,1.85.1,3.69.16,5.53.23.18-.33.36-.66.53-1l-1.71-.06C450.79,409.35,450,409.38,449.14,409.3Z" transform="translate(-222.26 -240.44)"/><path class="cls-2" d="M422.79,408.55l.93.1c.18-.27.35-.54.53-.8h-1.79C422.26,408.39,422.47,408.51,422.79,408.55Z" transform="translate(-222.26 -240.44)"/><path class="cls-2" d="M455.78,410l-.24.51v0l9.63.36c5,.2,10,.39,15,.61l.09-.77-5.61-.29c-3.36-.17-6.72-.3-10.08-.47-1.58-.08-3.15-.23-4.74-.3l-3.8-.14Z" transform="translate(-222.26 -240.44)"/><path class="cls-2" d="M472.69,412.1c-2.37-.1-4.74-.15-7.1-.23-2.77-.09-5.53-.28-8.3-.29-.74,0-1.49,0-2.23-.09-.07.14-.14.28-.22.42q12.51.7,25,1.35c0-.27.1-.54.14-.81C477.56,412.34,475.12,412.2,472.69,412.1Z" transform="translate(-222.26 -240.44)"/><path class="cls-2" d="M448.42,411.28a4.17,4.17,0,0,1-.7-.08l-6.43-.47-.21.39,11,.64c.08-.15.15-.31.23-.46A27.13,27.13,0,0,0,448.42,411.28Z" transform="translate(-222.26 -240.44)"/><path class="cls-2" d="M434.73,410.39c-1.33-.06-2.66-.16-4-.24-.4,0-.81,0-1.22,0v.28l9.82.58.24-.41-2.83-.21C436.08,410.35,435.4,410.43,434.73,410.39Z" transform="translate(-222.26 -240.44)"/><path class="cls-2" d="M427.94,410.25c.36,0,.81.44,1.15-.22l-1-.06C428.06,410.06,428,410.16,427.94,410.25Z" transform="translate(-222.26 -240.44)"/></svg>